<?xml version="1.0" encoding="UTF-8"?>
<!DOCTYPE svg PUBLIC "-//W3C//DTD SVG 1.1//EN" "http://www.w3.org/Graphics/SVG/1.1/DTD/svg11.dtd">
<!-- Creator: CorelDRAW 2020 (64-Bit Wersja próbna) -->
<svg xmlns="http://www.w3.org/2000/svg" xml:space="preserve" width="880mm" height="659mm" version="1.1" style="shape-rendering:geometricPrecision; text-rendering:geometricPrecision; image-rendering:optimizeQuality; fill-rule:evenodd; clip-rule:evenodd"
viewBox="0 0 88000 65900"
 xmlns:xlink="http://www.w3.org/1999/xlink"
 xmlns:xodm="http://www.corel.com/coreldraw/odm/2003">
 <defs>
  <style type="text/css">
   <![CDATA[
    .str0 {stroke:#2B2A29;stroke-width:20;stroke-miterlimit:22.9256}
    .fil0 {fill:#FEFEFE}
    .fil3 {fill:#2B2A29}
    .fil1 {fill:#7688A1}
    .fil2 {fill:#2B2A29;fill-rule:nonzero}
   ]]>
  </style>
   <clipPath id="id0">
    <rect x="156.32" y="-131.27" width="88007.59" height="65905.53"/>
   </clipPath>
 </defs>
 <g id="Warstwa_x0020_1">
  <metadata id="CorelCorpID_0Corel-Layer"/>
  <g style="clip-path:url(#id0)">
   <image id="paper.png" x="156.32" y="-131.42" width="88007.74" height="65905.68" xlink:href="paper_Images\paper_ImgID1.png"/>
  </g>
  <path class="fil0 str0" d="M44342.15 31677.17c-212.61,283.52 -320.92,419 -263.77,312.22 23.04,-43.06 115.61,-147.67 263.77,-312.22zm-35059.47 8942.45c482.97,3759.53 2178.33,7198.34 4357.16,9996.07 1601.14,2055.95 3359.59,3956.25 5431.14,5435.32 1499.84,1070.87 3142.68,1796.11 4882.24,2273.96 2266.16,622.5 4696.48,825.16 7188.65,825.16 1924.75,0 6573.3,-770.3 6995.6,-750.79 1088.71,50.29 5645.42,-1504.09 6296.51,-2264.03 152.1,-177.53 4809.59,-857.22 7809.26,-3856.89 1819.41,-1819.4 4223.03,-2249.1 4420.46,-2453.58 1212.86,-1256.14 4518.01,-1933.76 5870.8,-2965.45 1309.18,-998.43 9580.02,-3235.24 10148.27,-3597.47 2305.27,-1469.49 12253.94,-2311.65 11512,-6717.07 -649.12,-3854.3 -6003.35,-2809.45 -7867.95,-2895.58 -2095.94,-96.82 -5234.82,867.4 -7194.48,1197.44 -3620.88,609.83 -5381.34,395.54 -9479.45,1387.02 -1606.24,388.61 -4990.84,3348.83 -5379.43,3442.84 -99.26,24.01 4672.68,-4820.21 6123.33,-5065.89 1781.19,-301.67 6634.67,-3991.19 7208.45,-4088.38 1727.18,-292.55 7456.59,-4240.55 8499.51,-4411.13 2822.7,-461.69 7076.53,-4509.27 4134.48,-7451.3 -2045.44,-2045.42 -5317.24,-2652.83 -8213.63,-2652.83 -1295.87,0 -10919.63,2991.08 -11548.89,3728.72 -805.38,944.09 -10550.28,4352.81 -13556.18,8714.69 -1118.48,1623.02 -2117.47,2714.85 -2578.38,3226.72 749.66,-999.7 2795.97,-3840.01 3457.54,-4391.75 16.53,-79.93 1636.75,-2222.5 1819.78,-2591.36 925.43,-1864.92 5964.15,-5992.01 7208.45,-8499.51 948.63,-1911.65 6642.87,-5316.2 6590.58,-6642.83 -168.91,-4285.77 -1303.6,-4150.79 -4088.37,-5299.52 -2407.88,-993.26 -4754.7,-436.89 -7082.42,368.88 -108.66,313.92 -1065.3,652.16 -1515.46,743.9 -1432.83,292.02 -4348.96,2721.12 -4823.05,3676.46 -765.7,1542.96 -9741.36,9261.05 -9790.57,9360.22 -468.42,943.9 -5508.74,4892.6 -5533.14,5010.57 -243.03,50.28 -4540.13,3226.94 -5173.49,3541.2 -1564.24,776.13 -1631.09,2070.79 -2133.32,-393.47 -638.11,-3130.98 -327.17,-3785.02 -1497.03,-7217.67 -932.98,-2737.6 -2045.2,-3613.06 -3293.07,-4185.28 -453.25,-207.84 -650.23,-525.13 -1132.73,-772.49 -68.33,-35.02 -476.27,-238.15 -680.82,-359.43 -1464.23,-868.21 -2921.47,-801.21 -4304.95,-616.89 -402.58,53.63 -726.33,30.68 -1132.12,-2.72 -397.39,-32.7 -892.75,23.79 -1187.66,12.29 -975.28,-38.02 -1738.34,-68.66 -2452.15,304.28 -326.37,170.51 -814.68,391.03 -1329.52,590.84l-485.1 622.93c-915.23,1418.51 1780.42,8233.18 2584.46,9009.5 3223.37,3112.27 1769.73,7453.65 1029.32,11631.23 -305.53,1723.88 -323.96,3413.6 -114.63,5043.07z"/>
  <path class="fil0 str0" d="M44342.15 31677.17c-212.61,283.52 -320.92,419 -263.77,312.22 23.04,-43.06 115.61,-147.67 263.77,-312.22zm0 0c-212.61,283.52 -320.92,419 -263.77,312.22 23.04,-43.06 115.6,-147.67 263.77,-312.22zm-35059.47 8942.45c482.97,3759.53 2178.33,7198.34 4357.16,9996.07 1601.14,2055.95 3359.59,3956.25 5431.14,5435.32 1499.84,1070.87 3142.68,1796.11 4882.24,2273.96 2266.16,622.5 4696.48,825.16 7188.65,825.16 1924.75,0 6573.3,-770.3 6995.6,-750.79 1088.71,50.29 5645.42,-1504.09 6296.51,-2264.03 152.1,-177.53 4809.59,-857.22 7809.26,-3856.89 1819.41,-1819.4 4223.03,-2249.1 4420.46,-2453.58 1212.86,-1256.14 4518.01,-1933.76 5870.8,-2965.45 1309.18,-998.43 9580.02,-3235.24 10148.27,-3597.47 2305.27,-1469.49 12253.94,-2311.65 11512,-6717.07 -649.12,-3854.3 -6003.35,-2809.45 -7867.95,-2895.58 -2095.94,-96.82 -5234.82,867.4 -7194.48,1197.44 -3620.88,609.83 -5381.34,395.54 -9479.45,1387.02 -1606.24,388.61 -4990.84,3348.83 -5379.43,3442.84 -99.26,24.01 4672.68,-4820.21 6123.33,-5065.89 1781.19,-301.67 6634.67,-3991.19 7208.45,-4088.38 1727.18,-292.55 7456.59,-4240.55 8499.51,-4411.13 2822.7,-461.69 7076.53,-4509.27 4134.48,-7451.3 -2045.44,-2045.42 -5317.24,-2652.83 -8213.63,-2652.83 -1295.87,0 -10919.63,2991.08 -11548.89,3728.72 -805.38,944.09 -10550.28,4352.81 -13556.18,8714.69 -1118.48,1623.03 -2117.48,2714.86 -2578.38,3226.72 749.66,-999.7 2795.97,-3840.01 3457.54,-4391.75 16.53,-79.93 1636.75,-2222.5 1819.78,-2591.36 925.43,-1864.92 5964.15,-5992.01 7208.45,-8499.51 948.63,-1911.65 6642.87,-5316.2 6590.58,-6642.83 -168.91,-4285.77 -1303.6,-4150.79 -4088.37,-5299.52 -2407.88,-993.26 -4754.7,-436.89 -7082.42,368.88 -108.66,313.92 -1065.3,652.16 -1515.46,743.9 -1432.83,292.02 -4348.96,2721.12 -4823.05,3676.46 -765.7,1542.96 -9741.36,9261.05 -9790.57,9360.22 -468.42,943.9 -5508.74,4892.6 -5533.14,5010.57 -243.03,50.28 -4540.13,3226.94 -5173.49,3541.2 -1564.24,776.13 -1631.09,2070.79 -2133.32,-393.47 -638.11,-3130.98 -327.17,-3785.02 -1497.03,-7217.67 -932.98,-2737.6 -2045.2,-3613.06 -3293.07,-4185.28 -453.25,-207.84 -650.23,-525.13 -1132.73,-772.49 -68.33,-35.02 -476.27,-238.15 -680.82,-359.43 -1464.23,-868.21 -2921.47,-801.21 -4304.95,-616.89 -402.58,53.63 -726.33,30.68 -1132.12,-2.72 -397.39,-32.7 -892.75,23.79 -1187.66,12.29 -975.28,-38.02 -1738.34,-68.66 -2452.15,304.28 -326.37,170.51 -814.68,391.03 -1329.52,590.84l-485.1 622.93c-915.23,1418.51 1780.42,8233.18 2584.46,9009.5 3223.37,3112.27 1769.73,7453.65 1029.32,11631.23 -305.53,1723.88 -323.96,3413.6 -114.63,5043.07z"/>
  <path class="fil0 str0" d="M19070.98 56051.01c-2071.55,-1479.07 -3830,-3379.37 -5431.14,-5435.32 -2178.83,-2797.73 -3874.19,-6236.54 -4357.16,-9996.07 -6747.92,314.52 -5818.5,8830.11 -2781.43,11420.97 4.73,4.03 1215.76,2080.5 1532.25,2145.97 150.57,727.75 3056.26,3397.75 3849.99,3672.5 286.41,99.13 1686.62,954.84 3012.48,1426.33 1916.32,681.45 6970.01,2595.05 8204.42,107.58 173.03,-348.67 710.18,-388.28 852.83,-1068 -1739.56,-477.85 -3382.4,-1203.09 -4882.24,-2273.96z"/>
  <path class="fil0 str0" d="M18740.33 42179.96c483.37,-361.71 964.47,-736.04 1405.77,-1130.61 417.41,-373.22 808.41,-774.1 1145.74,-1216.12 112.49,-147.4 210.58,-285.34 308.38,-422.88l35.42 -49.8c399.11,-560.91 1177.38,-692.08 1738.29,-292.97 560.91,399.11 692.08,1177.38 292.97,1738.29l-35.42 49.8c-120.5,169.46 -241.36,339.43 -357.22,491.24 -431.73,565.71 -932.79,1079.34 -1468,1557.9 -511.35,457.21 -1043.56,872.05 -1571.79,1267.33 -711.16,532.18 -1450.16,1066.26 -2181.51,1551.64 -764.31,507.24 -1553.04,986.61 -2349.19,1399.49 -612.15,315.51 -1364.18,75.04 -1679.69,-537.11 -315.51,-612.15 -75.04,-1364.18 537.11,-1679.69 702.21,-364.16 1414.49,-798 2114.81,-1262.77 733.26,-486.65 1422.56,-983.48 2064.33,-1463.74zm759.41 6204.62c1278.8,-330.23 4033.92,-2001.04 5667.62,-2991.79 822.39,-498.7 -618.36,366.31 494.01,-303.88l526.44 -317.47c1383.24,-834.58 2734.45,-1649.83 4199.97,-2457.54 420.66,-231.84 70.21,-37.88 0.77,1.4l0.26 0.48 61.88 -33.68c72.78,-39.77 143.16,-78.23 193.76,-114.22 560.91,-399.11 1339.18,-267.94 1738.29,292.97 399.11,560.91 267.94,1339.18 -292.97,1738.29 -156.76,111.48 -299.76,189.63 -447.64,270.54 117.82,-64.18 344.61,-187.52 -53.17,31.72 -1385.01,763.35 -2732.57,1576.39 -4112.09,2408.72l-526.44 317.47c-1411.83,850.61 -28.84,12.02 -494.01,294.1 -1753.12,1063.18 -4709.65,2856.13 -6331.68,3274.99 -666.08,172.58 -1345.97,-227.47 -1518.55,-893.55 -172.58,-666.08 227.47,-1345.97 893.55,-1518.55zm2235.31 4307.72c-86.29,-682.26 396.84,-1305.31 1079.1,-1391.6 938.86,-119.75 1796.77,-279.11 2658.12,-479.34 840.44,-195.37 1695.3,-436.21 2641.91,-721.21 388.42,-116.94 801.2,-218.69 1211.38,-319.79 711.75,-175.43 1414.53,-348.66 2030.48,-647.83 115.58,-56.13 216.64,-106.14 317.58,-156.09 175.07,-86.63 350.07,-173.21 509.59,-248.92 622.93,-293.94 1366.22,-27.23 1660.16,595.7 293.94,622.93 27.23,1366.22 -595.7,1660.16 -170.05,80.7 -320.28,155.04 -470.53,229.38 -116.76,57.78 -233.52,115.56 -337.12,165.87 -847.65,411.7 -1677.89,616.35 -2518.76,823.61 -355.52,87.63 -713.31,175.83 -1094.18,290.49 -970.79,292.28 -1867.28,543.87 -2798.17,760.27 -909.97,211.54 -1843.52,383.36 -2902.26,518.4 -682.26,86.29 -1305.31,-396.84 -1391.6,-1079.1zm-11438.04 -12619.03c133.45,374.97 279.15,784.34 412.22,1353.76l18.46 78.99c250.83,1073.73 466.28,1995.89 829.55,2994.4 546.4,1501.89 1440.43,3082.46 2500.93,4582.03 1198.65,1694.93 2591.18,3262.01 3928.59,4485.82 852.35,779.94 1818.33,1517.01 2858.66,2135.68 918.69,546.33 1883.52,991.31 2862.42,1278.6 1512.98,444.03 3086.04,700.76 4680.06,823.49 1619.83,124.72 3250.16,111.13 4855.75,14.33 1253.33,-75.56 2405.97,-234.57 3619.39,-401.94 259.34,-35.76 521.44,-71.93 787.82,-107.75 523.65,-70.43 1034.38,-177.27 1549.67,-285.04 396.55,-82.94 795.42,-166.38 1061.48,-213.96 1254.01,-224.23 2314.25,-488.61 3324.07,-846.02 1023.53,-362.26 2011.78,-821.34 3110.38,-1430.9 752.22,-417.37 1476.65,-775.4 2199.75,-1132.77 823.14,-406.8 1644.59,-812.78 2378.83,-1235.1 250.61,-144.14 514.92,-343.41 776.78,-540.82 269.33,-203.03 536.55,-404.48 843.56,-593.26 367.88,-226.19 650.1,-408.89 903.79,-587.17 304.75,-214.16 571.08,-415.05 867.85,-650.15 1281.97,-1015.53 2355.05,-1501.43 3702.94,-2111.74 103.26,-46.75 208.25,-94.3 315.13,-142.9 832.06,-378.36 1687.96,-708.72 2551.44,-1042.01 404.82,-156.24 811.55,-313.23 1292.89,-507.9 588.15,-237.86 1241.69,-489.57 1894.97,-741.16 530.28,-204.24 1060.52,-408.45 1486.02,-577.33 19.36,-8.92 39.05,-17.41 59.06,-25.43 476.59,-190.76 926.55,-368.47 1369.65,-536.85 493.64,-187.58 955.57,-357.07 1394.28,-508.26 577.46,-199 1086.31,-385.66 1594.45,-572.05 628.54,-230.55 1256.11,-460.75 1995.01,-707.51 355.65,-119.18 718.6,-244.7 1085.46,-373.51 191.49,-67.24 419.38,-150.93 1086.55,-389.13l0.57 1.58 4.31 -1.58c223.2,-79.36 463.6,-163.89 833.77,-288.78 294.96,-99.51 583.61,-192.66 866.41,-276.15 986.91,-291.38 1873.76,-587.47 2819.37,-903.16l135 -45.07 219.11 -73.59c683.89,-229.33 1475.42,-494.78 2070.18,-783.92 589.91,-286.79 1140.3,-621.94 1510.96,-1030.84 283.87,-313.15 470.76,-693.54 485.53,-1167.08 -46.87,-529.56 -309.03,-979.76 -676.61,-1359.45 -435.86,-450.22 -1017.86,-816.35 -1604.4,-1109.89l-1.47 -0.64c-528.92,-239.57 -1215.2,-369.18 -1940.8,-425.04 -963.22,-74.15 -1962.4,-17.69 -2783.88,89.58 -20.36,4.1 -40.93,7.73 -61.7,10.85 -166.37,25.47 -334.2,50.91 -502.8,76.44 -662,100.26 -1336.49,202.43 -1974.08,315.93l-0.52 -2.97c-534.85,99.53 -1066.8,199.9 -1515.14,290.2 -426.36,85.87 -912.37,191.24 -1491.42,328.75l-1.09 -4.62c-646.52,154.98 -1240.65,290.14 -1813.48,407.52 -588.71,120.65 -1191.12,230.69 -1850.62,334.69 -873.76,137.38 -1764.84,338.97 -2654.15,540.15 -838.53,189.69 -1675.59,379.06 -2519.92,522.17l-0.27 -1.63 -9.5 1.63c-767.5,122.37 -1447,291.69 -2091.3,532.44 -616.9,230.51 -1212.51,530.1 -1833.92,920.45 -16.31,12.19 -32.98,24.08 -50.05,35.59 -74.07,50.03 -296.66,213.13 -594.36,431.27 -610.26,447.16 -1428.68,1046.82 -2200.32,1439.05 -348.75,529.3 -1049.09,717.57 -1621.68,416.08 -143.83,-75.73 -266.72,-175.62 -366.36,-292.02 -3.17,-3.65 -6.5,-6.99 -9.62,-10.72l0.37 -0.31c-314.77,-376.48 -389.65,-920.41 -146.86,-1381.52 135.51,-256.46 643.41,-762.46 773.83,-892.43l12.63 -12.59c715.18,-713.11 1479.66,-1465.88 2301.83,-2178.3 849.84,-736.4 1747.34,-1417.67 2689.57,-1948.11l0.46 0.81 19.07 -10.57c160.39,-86.21 335.19,-172.39 531.54,-262.45 171.04,-78.44 324.14,-144.37 467.09,-201.76 20.63,-9.46 41.61,-18.46 62.97,-26.9 461.9,-182.9 891.55,-461.6 1327.02,-744.09 195.44,-126.77 391.91,-254.21 600.93,-381.53 21.34,-14.45 43.18,-28.4 65.67,-41.69 440.44,-262.05 848.44,-474.86 1255.36,-668.93 292.82,-139.65 742.6,-334.85 1237.49,-548.7 495.13,-213.96 914.72,-447.88 1370.08,-701.73 196.84,-109.73 398.64,-222.25 530.8,-294.39 27.71,-16.92 56.28,-32.92 85.71,-47.89 800.64,-408.69 1543.38,-825.28 2292.77,-1245.6 268.82,-150.77 537.86,-301.69 1191.07,-659.48 202.62,-110.98 498.73,-275.82 797.13,-441.92 811,-451.45 1641.94,-913.99 2440.96,-1300.18 115.12,-55.64 465.6,-230.16 817.26,-405.28 722.95,-359.97 1444.9,-719.46 2223.01,-1035.03 595.49,-241.5 1076.55,-448.85 1513.09,-684.92 425.75,-230.24 837.43,-502.39 1317.14,-884.36 335.84,-267.42 833.52,-724.16 1204.79,-1188.66 201.85,-252.54 354.87,-479.43 379.35,-608.25 164.98,-867.95 -187.72,-1583.62 -756.78,-2174.5 -698.38,-725.16 -1731.66,-1308.79 -2662.43,-1773.42 -264.72,-132.15 -724.8,-282.98 -1223.16,-422.15 -688.62,-192.31 -1423.51,-355.67 -1869.77,-428.85 -353.42,-57.95 -620.81,-89.76 -878.34,-102.3 -265.41,-12.91 -542.13,-7.18 -905.01,10.31 -2962.78,142.84 -3866.19,556.63 -6159.14,1606.87 -495.33,226.88 -787.62,362.17 -904.95,415.21 -532.45,240.69 -1016.28,473.94 -1499.28,706.78 -610.32,294.23 -1219.47,587.9 -1874.19,875.18 -171.76,75.36 -467.17,200.39 -755.08,322.24 -718.72,304.2 -1376.09,582.44 -2087.72,1000.36 -475.36,279.16 -902.85,469.74 -1329.13,659.75 -292.55,130.4 -584.49,260.55 -846.55,399.99 -968.51,515.33 -1846.36,949.84 -2732.11,1388.24 -169.09,83.69 350.53,-173.53 -754.94,376.81l-0.99 -1.98 -3.89 1.98c-79.03,39.24 -155.55,77.03 -229.79,113.67 -776.3,383.22 -1269.46,626.69 -1881.64,1257.86l-0.15 -0.14 -9.61 9.91 -35.2 35.47c-206.59,208.24 -414.09,417.37 -664.49,637.36l-0.27 -0.31c-82.03,72.55 -165.06,145.79 -248.69,219.54 -539.06,475.46 -972.92,710.23 -1470.52,1208.62l-158.96 291.29c-1396.56,1398.75 -3881.42,5609.91 -5423.24,4545.32 -1410.5,-973.94 912.51,-3450.55 1728.19,-4483.45 244.22,-309.11 500.87,-606.36 766.31,-897.37 370.81,-406.55 704.97,-825 1040.71,-1245.44 236.32,-295.93 473.4,-592.82 739.43,-906.61l148.58 -175.26c778.9,-918.88 1565.62,-1846.96 2275.67,-2653.21l1.77 1.55c12.1,-13.72 24.48,-27.29 37.29,-40.61 170.61,-177.77 389.87,-415.07 609.5,-652.78 373.08,-403.79 747.42,-808.93 1159.83,-1206.15l14.3 -13.95c173.25,-164.67 575.49,-536.64 975.97,-906.97 1165.41,-1077.7 2308.93,-2135.17 3248.39,-3432.25l1.39 1.01c550.81,-769.08 1130.42,-1371.33 1716.47,-1980.26 305.65,-317.58 613.21,-637.14 883.63,-945.14 195.26,-222.39 423.41,-477.18 682.44,-763.3 373.85,-412.94 571.78,-630.05 681.83,-749.21 438.44,-474.7 851.39,-839 1227.42,-1170.72 709.12,-625.57 1239.82,-1093.73 1496.96,-2359.27 40.2,-197.85 -33.66,-426.4 -159.25,-655.61 -188.45,-343.95 -484.72,-679.5 -768.27,-970.12 -345.13,-353.75 -872.82,-668.6 -1460.35,-931.14 -774.45,-346.07 -1630.27,-586.73 -2335.54,-709.21 -454.19,-78.88 -1139.91,-150.93 -1796.41,-179.53 -515.48,-22.44 -1007.13,-18.42 -1331.88,30.92 -1177.66,178.93 -1944.72,350.99 -2635.93,618.11 -698.04,269.76 -1404.11,669.68 -2437.62,1295.19 -592.32,358.48 -1176.22,781.3 -1733.81,1242.7 -604.87,500.52 -1171.69,1038.86 -1680,1584.68 -239.05,256.7 -779.48,821.54 -1320.12,1386.58 -517.73,541.13 -1035.01,1081.76 -1723.37,1837.27 -396.7,435.39 -831.67,881.4 -1265.85,1326.59 -331.12,339.51 -661.76,678.54 -1011.52,1054.76 -475.02,510.95 -959.87,1012.61 -1461.24,1516.68 -493.73,496.39 -987.61,978.62 -1493.85,1464.04 -388.56,372.57 -819.89,750.06 -1251.68,1127.95 -533.75,467.14 -1068.34,934.99 -1521.63,1405.28l-0.14 -0.13 -4.75 5.01c-787.36,809.05 -1558.7,1422.55 -2391.3,2084.74l-120.37 95.76c-501.93,399.48 -1045.06,801.09 -1590.18,1204.18 -376.36,278.29 -753.53,557.2 -956.18,711.35 -439.33,334.2 -858.79,627.46 -1277.21,919.99 -464.68,324.88 -928.09,648.88 -1357.06,984.18 -15.16,13.45 -30.7,26.62 -46.66,39.45 -509.51,411.76 -918.4,691.66 -1398.56,1020.35 -274.77,188.12 95.2,-67.5 -192.22,130.18 -12.73,9.69 -25.61,19.25 -38.8,28.53 -41.73,29.36 -67.68,49.71 -100.79,75.67 -347.4,272.4 -1010.15,792.04 -1629.48,956.78 -907.59,241.43 -1633.75,16.66 -1921.27,-1064.23 -140.64,-528.82 -39.02,-1368.96 47.82,-2086.88 36.02,-297.77 69.02,-570.47 74.21,-680.95 44.94,-955.73 55.42,-1581.89 -31.66,-2141.92 -83.89,-539.49 -268.79,-1095.8 -613.68,-1922.77 -10.09,-19.97 -19.74,-40.3 -28.86,-61.02 -169.48,-384.66 -23.04,-60.06 -210.8,-493.79 -428.95,-990.83 -792.13,-1829.75 -1520.07,-2665.46l3.05 -2.65c-251.65,-282.63 -675.73,-685.6 -1122.89,-1069.68 -393.91,-338.34 -790.02,-646.78 -1072.42,-817.49 -966.9,-584.5 -1774.63,-1007.24 -2600.67,-1267.97 -808.84,-255.31 -1667.12,-366.7 -2759.19,-338.89l-115.2 2.92c-1331.01,33.6 -2975.85,75.15 -4137.94,459.18 -391.74,129.45 -716.97,271.36 -963.83,451.29 -220.64,160.82 -409.54,375.51 -569.88,674.06 -309.15,575.63 -437.06,1026.19 -426.09,1448.16 11.66,448.55 181.65,961.03 461.5,1609.76 206.47,478.61 363.79,942.57 518.63,1399.23 211.87,624.84 418.35,1233.8 751,1801.58 415.7,709.52 784.24,1339.73 955.29,1639.03 296.78,519.29 602.76,1066.98 931.61,1676.64 182.13,338.08 335.62,598.38 459.09,807.76 596.74,1011.99 671.82,1139.32 757.28,3051.55l-0.64 0.03 0.64 14.62c15.51,447.26 5.62,795.91 -33.7,1137.22 -38.47,333.78 -106.32,665.8 -207.35,1084.17 -192.61,797.64 -251.13,1403.78 -328.84,2208.94l-18.32 189.3c-65.02,668.4 -151.69,1232.14 -238.41,1796.34 -128.24,834.26 -256.66,1669.61 -277.19,2386.98 -25.26,882.99 133.06,1327.87 325,1867.14z"/>
  <path class="fil1 str0" d="M16307.08 55404.21c-1475.67,-1350.33 -2997.44,-3058.59 -4289.93,-4886.22 -1174.4,-1660.63 -2174.79,-3439.36 -2803.67,-5167.97 -423.96,-1165.31 -651.97,-2141.26 -917.43,-3277.6l-18.46 -78.99c-1.88,-8.05 -3.77,-16.06 -5.66,-24.04 -1036.82,132.71 -1755.47,388.53 -2527.92,1371.26 -236.48,300.86 -405.82,669.49 -516.1,1063.54 -134.85,481.85 -184.2,995.05 -162.08,1476.57 48.35,1052.65 312.98,2056.6 718.2,3013.06 417.65,985.83 991.86,1932.94 1639.05,2837.74 457.71,639.92 904.39,1263.81 1326.26,1791.35 428.2,535.44 889.98,1052.48 1428.13,1546.22 91.75,84.18 180.67,166.13 267.52,246.17 624.46,575.51 1139.17,1049.86 1839.69,1550.33 623.47,445.42 1119.37,799.57 1580.25,1078.71 466.29,282.41 957.14,530.48 1610.5,791.34 865.31,345.49 1533.08,580.06 2199.82,717.74 657.14,135.7 1348.22,184.48 2276.55,162.57 588.76,-13.89 1126.42,-73.88 1587.35,-243.71 198.24,-73.04 386.04,-170.17 562.27,-298.42 -872.79,-325.82 -1719.16,-741.93 -2525.54,-1221.47 -1176.41,-699.6 -2282.26,-1545.45 -3268.8,-2448.18z"/>
  <path class="fil1 str0" d="M32440.02 51378.63c-847.65,411.7 -1677.89,616.35 -2518.76,823.61 -355.52,87.63 -713.31,175.83 -1094.18,290.49 -970.79,292.28 -1867.28,543.87 -2798.17,760.27 -909.97,211.54 -1843.52,383.36 -2902.26,518.4 -682.26,86.29 -1305.31,-396.84 -1391.6,-1079.1 -86.29,-682.26 396.84,-1305.31 1079.1,-1391.6 938.86,-119.75 1796.77,-279.11 2658.12,-479.34 840.44,-195.37 1695.3,-436.21 2641.91,-721.21 388.42,-116.94 801.2,-218.69 1211.38,-319.79 711.75,-175.43 1414.53,-348.66 2030.48,-647.83 115.58,-56.13 216.64,-106.14 317.58,-156.09 175.07,-86.63 350.07,-173.21 509.59,-248.92 622.93,-293.94 1366.22,-27.23 1660.16,595.7 293.94,622.93 27.23,1366.22 -595.7,1660.16 -170.05,80.7 -320.28,155.04 -470.53,229.38 -116.76,57.78 -233.52,115.56 -337.12,165.87zm-5983.6 -3856.94c-1753.12,1063.18 -4709.65,2856.13 -6331.68,3274.99 -666.08,172.58 -1345.97,-227.47 -1518.55,-893.55 -172.58,-666.08 227.47,-1345.97 893.55,-1518.55 1278.8,-330.23 4033.92,-2001.04 5667.62,-2991.79 822.39,-498.7 -618.36,366.31 494.01,-303.88l526.44 -317.47c1383.24,-834.58 2734.45,-1649.83 4199.97,-2457.54 420.66,-231.84 70.21,-37.88 0.77,1.4l0.26 0.48 61.88 -33.68c72.78,-39.77 143.16,-78.23 193.76,-114.22 560.91,-399.11 1339.18,-267.94 1738.29,292.97 399.11,560.91 267.94,1339.18 -292.97,1738.29 -156.76,111.48 -299.76,189.63 -447.64,270.54 117.81,-64.18 344.61,-187.52 -53.17,31.72 -1385.01,763.35 -2732.57,1576.39 -4112.09,2408.72l-526.44 317.47c-1411.83,850.61 -28.84,12.02 -494.01,294.1zm-10752.65 -398.42c-612.15,315.51 -1364.18,75.04 -1679.69,-537.11 -315.51,-612.15 -75.04,-1364.18 537.11,-1679.69 702.21,-364.16 1414.49,-798 2114.81,-1262.77 733.26,-486.65 1422.56,-983.48 2064.33,-1463.74 483.37,-361.71 964.47,-736.04 1405.77,-1130.61 417.41,-373.22 808.41,-774.1 1145.74,-1216.12 112.49,-147.4 210.58,-285.34 308.38,-422.88l35.42 -49.8c399.11,-560.91 1177.38,-692.08 1738.29,-292.97 560.91,399.11 692.08,1177.38 292.97,1738.29l-35.42 49.8c-120.5,169.46 -241.36,339.43 -357.22,491.24 -431.73,565.71 -932.79,1079.34 -1468,1557.9 -511.35,457.21 -1043.56,872.05 -1571.79,1267.33 -711.16,532.18 -1450.16,1066.26 -2181.51,1551.64 -764.31,507.24 -1553.04,986.61 -2349.19,1399.49zm-4976.08 -5617.25c250.83,1073.73 466.28,1995.89 829.55,2994.4 546.4,1501.89 1440.43,3082.46 2500.93,4582.03 1198.65,1694.93 2591.18,3262.01 3928.59,4485.82 852.35,779.94 1818.33,1517.01 2858.66,2135.68 918.69,546.33 1883.52,991.31 2862.42,1278.6 1512.98,444.03 3086.04,700.76 4680.06,823.49 1619.83,124.72 3250.16,111.13 4855.75,14.33 1253.33,-75.56 2405.97,-234.57 3619.39,-401.94 259.34,-35.76 521.44,-71.93 787.82,-107.75 523.65,-70.43 1034.38,-177.27 1549.67,-285.04 396.55,-82.94 795.42,-166.38 1061.48,-213.96 1254.01,-224.23 2314.25,-488.61 3324.07,-846.02 1023.53,-362.26 2011.78,-821.34 3110.38,-1430.9 752.22,-417.37 1476.65,-775.4 2199.75,-1132.77 823.14,-406.8 1644.59,-812.78 2378.83,-1235.1 250.61,-144.14 514.92,-343.41 776.78,-540.82 269.33,-203.03 536.55,-404.48 843.56,-593.26 367.88,-226.19 650.1,-408.89 903.79,-587.17 304.75,-214.16 571.08,-415.05 867.85,-650.15 1281.97,-1015.53 2355.05,-1501.43 3702.94,-2111.74 103.26,-46.75 208.25,-94.3 315.13,-142.9 832.06,-378.36 1687.96,-708.72 2551.44,-1042.01 404.82,-156.24 811.55,-313.23 1292.89,-507.9 588.15,-237.86 1241.69,-489.57 1894.97,-741.16 530.28,-204.24 1060.52,-408.45 1486.02,-577.33 19.36,-8.92 39.05,-17.41 59.06,-25.43 476.59,-190.76 926.55,-368.47 1369.65,-536.85 493.64,-187.58 955.57,-357.07 1394.28,-508.26 577.46,-199 1086.31,-385.66 1594.45,-572.05 628.54,-230.55 1256.11,-460.75 1995.01,-707.51 355.65,-119.18 718.6,-244.7 1085.46,-373.51 191.49,-67.24 419.38,-150.93 1086.55,-389.13l0.57 1.58 4.31 -1.58c223.2,-79.36 463.6,-163.89 833.77,-288.78 294.96,-99.51 583.61,-192.66 866.41,-276.15 986.91,-291.38 1873.76,-587.47 2819.37,-903.16l135 -45.07 219.11 -73.59c683.89,-229.33 1475.42,-494.78 2070.18,-783.92 589.91,-286.79 1140.3,-621.94 1510.96,-1030.84 283.87,-313.15 470.76,-693.54 485.53,-1167.08 -46.87,-529.56 -309.03,-979.76 -676.61,-1359.45 -435.86,-450.22 -1017.86,-816.35 -1604.4,-1109.89l-1.47 -0.64c-528.92,-239.57 -1215.2,-369.18 -1940.8,-425.04 -963.22,-74.15 -1962.4,-17.69 -2783.88,89.58 -20.36,4.1 -40.93,7.73 -61.7,10.85 -166.37,25.47 -334.2,50.91 -502.8,76.44 -662,100.26 -1336.49,202.43 -1974.08,315.93l-0.52 -2.97c-534.85,99.53 -1066.8,199.9 -1515.14,290.2 -426.36,85.87 -912.37,191.24 -1491.42,328.75l-1.09 -4.62c-646.52,154.98 -1240.65,290.14 -1813.48,407.52 -588.71,120.65 -1191.12,230.69 -1850.62,334.69 -873.76,137.38 -1764.84,338.97 -2654.15,540.15 -838.53,189.69 -1675.59,379.06 -2519.92,522.17l-0.27 -1.63 -9.5 1.63c-767.5,122.37 -1447,291.69 -2091.3,532.44 -616.9,230.51 -1212.51,530.1 -1833.92,920.45 -16.31,12.19 -32.98,24.08 -50.05,35.59 -74.07,50.03 -296.66,213.13 -594.36,431.27 -610.26,447.16 -1428.68,1046.82 -2200.32,1439.05 -348.75,529.3 -1049.09,717.57 -1621.68,416.08 -143.83,-75.73 -266.72,-175.62 -366.36,-292.02 -3.17,-3.65 -6.5,-6.99 -9.62,-10.72l0.37 -0.31c-314.77,-376.48 -389.65,-920.41 -146.86,-1381.52 135.51,-256.46 643.41,-762.46 773.83,-892.43l12.63 -12.59c715.18,-713.11 1479.66,-1465.88 2301.83,-2178.3 849.84,-736.4 1747.34,-1417.67 2689.57,-1948.11l0.46 0.81 19.07 -10.57c160.39,-86.21 335.19,-172.39 531.54,-262.45 171.04,-78.44 324.14,-144.37 467.09,-201.76 20.63,-9.46 41.61,-18.46 62.97,-26.9 461.9,-182.9 891.55,-461.6 1327.02,-744.09 195.44,-126.77 391.91,-254.21 600.93,-381.53 21.34,-14.45 43.18,-28.4 65.67,-41.69 440.44,-262.05 848.44,-474.86 1255.36,-668.93 292.82,-139.65 742.6,-334.85 1237.49,-548.7 495.13,-213.96 914.72,-447.88 1370.08,-701.73 196.84,-109.73 398.64,-222.25 530.8,-294.39 27.71,-16.92 56.28,-32.92 85.71,-47.89 800.64,-408.69 1543.38,-825.28 2292.77,-1245.6 268.82,-150.77 537.86,-301.69 1191.07,-659.48 202.62,-110.98 498.73,-275.82 797.13,-441.92 811,-451.45 1641.94,-913.99 2440.96,-1300.18 115.12,-55.64 465.6,-230.16 817.26,-405.28 722.95,-359.97 1444.9,-719.46 2223.01,-1035.03 595.49,-241.5 1076.55,-448.85 1513.09,-684.92 425.75,-230.24 837.43,-502.39 1317.14,-884.36 335.84,-267.42 833.52,-724.16 1204.79,-1188.66 201.85,-252.54 354.87,-479.43 379.35,-608.25 164.98,-867.95 -187.72,-1583.62 -756.78,-2174.5 -698.38,-725.16 -1731.66,-1308.79 -2662.43,-1773.42 -264.72,-132.15 -724.8,-282.98 -1223.16,-422.15 -688.62,-192.31 -1423.51,-355.67 -1869.77,-428.85 -353.42,-57.95 -620.81,-89.76 -878.34,-102.3 -265.41,-12.91 -542.13,-7.18 -905.01,10.31 -2962.78,142.84 -3866.19,556.63 -6159.14,1606.87 -495.33,226.88 -787.62,362.17 -904.95,415.21 -532.45,240.69 -1016.28,473.94 -1499.28,706.78 -610.32,294.23 -1219.47,587.9 -1874.19,875.18 -171.76,75.36 -467.17,200.39 -755.08,322.24 -718.72,304.2 -1376.09,582.44 -2087.72,1000.36 -475.36,279.16 -902.85,469.74 -1329.13,659.75 -292.55,130.4 -584.49,260.55 -846.55,399.99 -968.51,515.33 -1846.36,949.84 -2732.11,1388.24 -169.09,83.69 350.53,-173.53 -754.94,376.81l-0.99 -1.98 -3.89 1.98c-79.03,39.24 -155.55,77.03 -229.79,113.67 -776.3,383.22 -1269.46,626.69 -1881.64,1257.86l-0.15 -0.14 -9.61 9.91 -35.2 35.47c-206.59,208.24 -414.09,417.37 -664.49,637.36l-0.27 -0.31c-82.03,72.55 -165.06,145.79 -248.69,219.54 -539.06,475.46 -972.92,710.23 -1470.52,1208.62l-158.96 291.29c-1396.56,1398.75 -3881.42,5609.91 -5423.24,4545.32 -1410.5,-973.94 912.51,-3450.55 1728.19,-4483.45 244.22,-309.11 500.87,-606.36 766.31,-897.37 370.81,-406.55 704.97,-825 1040.71,-1245.44 236.32,-295.93 473.4,-592.82 739.43,-906.61l148.58 -175.26c778.9,-918.88 1565.62,-1846.96 2275.67,-2653.21l1.77 1.55c12.1,-13.72 24.48,-27.29 37.29,-40.61 170.61,-177.77 389.87,-415.07 609.5,-652.78 373.08,-403.79 747.42,-808.93 1159.83,-1206.15l14.3 -13.95c173.25,-164.67 575.49,-536.64 975.97,-906.97 1165.41,-1077.7 2308.93,-2135.17 3248.39,-3432.25l1.39 1.01c550.81,-769.08 1130.42,-1371.33 1716.47,-1980.26 305.65,-317.58 613.21,-637.14 883.63,-945.14 195.26,-222.39 423.41,-477.18 682.44,-763.3 373.85,-412.94 571.78,-630.05 681.83,-749.21 438.44,-474.7 851.39,-839 1227.42,-1170.72 709.12,-625.57 1239.82,-1093.73 1496.96,-2359.27 40.2,-197.85 -33.66,-426.4 -159.25,-655.61 -188.45,-343.95 -484.72,-679.5 -768.27,-970.12 -345.13,-353.75 -872.82,-668.6 -1460.35,-931.14 -774.45,-346.07 -1630.27,-586.73 -2335.54,-709.21 -454.19,-78.88 -1139.91,-150.93 -1796.41,-179.53 -515.48,-22.44 -1007.13,-18.42 -1331.88,30.92 -1177.66,178.93 -1944.72,350.99 -2635.93,618.11 -698.04,269.76 -1404.11,669.68 -2437.62,1295.19 -592.32,358.48 -1176.22,781.3 -1733.81,1242.7 -604.87,500.52 -1171.69,1038.86 -1680,1584.68 -239.05,256.7 -779.48,821.54 -1320.12,1386.58 -517.73,541.13 -1035.01,1081.76 -1723.37,1837.27 -396.7,435.39 -831.67,881.4 -1265.85,1326.59 -331.12,339.51 -661.76,678.54 -1011.52,1054.76 -475.02,510.95 -959.87,1012.61 -1461.24,1516.68 -493.73,496.39 -987.61,978.62 -1493.85,1464.04 -388.56,372.57 -819.89,750.06 -1251.68,1127.95 -533.75,467.14 -1068.34,934.99 -1521.63,1405.28l-0.14 -0.13 -4.75 5.01c-787.36,809.05 -1558.7,1422.55 -2391.3,2084.74l-120.37 95.76c-501.93,399.48 -1045.06,801.09 -1590.18,1204.18 -376.36,278.29 -753.53,557.2 -956.18,711.35 -439.33,334.2 -858.79,627.46 -1277.21,919.99 -464.68,324.88 -928.09,648.88 -1357.06,984.18 -15.16,13.45 -30.7,26.62 -46.66,39.45 -509.51,411.76 -918.4,691.66 -1398.56,1020.35 -274.77,188.12 95.2,-67.5 -192.22,130.18 -12.73,9.69 -25.61,19.25 -38.8,28.53 -41.73,29.36 -67.68,49.71 -100.79,75.67 -347.4,272.4 -1010.15,792.04 -1629.48,956.78 -907.59,241.43 -1633.75,16.66 -1921.27,-1064.23 -140.64,-528.82 -39.02,-1368.96 47.82,-2086.88 36.02,-297.77 69.02,-570.47 74.21,-680.95 44.94,-955.73 55.42,-1581.89 -31.66,-2141.92 -83.89,-539.49 -268.79,-1095.8 -613.68,-1922.77 -10.09,-19.97 -19.74,-40.3 -28.86,-61.02 -169.48,-384.66 -23.04,-60.06 -210.8,-493.79 -428.95,-990.83 -792.13,-1829.75 -1520.07,-2665.46l3.05 -2.65c-251.65,-282.63 -675.73,-685.6 -1122.89,-1069.68 -393.91,-338.34 -790.02,-646.78 -1072.42,-817.49 -966.9,-584.5 -1774.63,-1007.24 -2600.67,-1267.97 -808.84,-255.31 -1667.12,-366.7 -2759.19,-338.89l-115.2 2.92c-1331.01,33.6 -2975.85,75.15 -4137.94,459.18 -391.74,129.45 -716.97,271.36 -963.83,451.29 -220.64,160.82 -409.54,375.51 -569.88,674.06 -309.15,575.63 -437.06,1026.19 -426.09,1448.16 11.66,448.55 181.65,961.03 461.5,1609.76 206.47,478.61 363.79,942.57 518.63,1399.23 211.87,624.84 418.35,1233.8 751,1801.58 415.7,709.52 784.24,1339.73 955.29,1639.03 296.78,519.29 602.76,1066.98 931.61,1676.64 182.13,338.08 335.62,598.38 459.09,807.76 596.74,1011.99 671.82,1139.32 757.28,3051.55l-0.64 0.03 0.64 14.62c15.51,447.26 5.62,795.91 -33.7,1137.22 -38.47,333.78 -106.32,665.8 -207.35,1084.17 -192.61,797.64 -251.13,1403.78 -328.84,2208.94l-18.32 189.3c-65.02,668.4 -151.69,1232.14 -238.41,1796.34 -128.24,834.26 -256.66,1669.61 -277.19,2386.98 -25.26,882.99 133.06,1327.87 325,1867.14 133.45,374.97 279.15,784.34 412.22,1353.76l18.46 78.99z"/>
  <path class="fil1 str0" d="M32183.21 48727.52c622.93,-293.94 1366.22,-27.23 1660.16,595.7 293.94,622.93 27.23,1366.22 -595.7,1660.16 -170.05,80.7 -320.28,155.04 -470.53,229.38 -116.76,57.78 -233.52,115.56 -337.12,165.87 -847.65,411.7 -1677.89,616.35 -2518.76,823.61 -355.52,87.63 -713.31,175.83 -1094.18,290.49 -970.79,292.28 -1867.28,543.87 -2798.17,760.27 -909.97,211.54 -1843.52,383.36 -2902.26,518.4 -682.26,86.29 -1305.31,-396.84 -1391.6,-1079.1 -86.29,-682.26 396.84,-1305.31 1079.1,-1391.6 938.86,-119.75 1796.77,-279.11 2658.12,-479.34 840.44,-195.37 1695.3,-436.21 2641.91,-721.21 388.42,-116.94 801.2,-218.69 1211.38,-319.79 711.75,-175.43 1414.53,-348.66 2030.48,-647.83 115.58,-56.13 216.64,-106.14 317.58,-156.09 175.07,-86.63 350.07,-173.21 509.59,-248.92zm-5726.79 -1205.83c-1753.12,1063.18 -4709.65,2856.13 -6331.68,3274.99 -666.08,172.58 -1345.97,-227.47 -1518.55,-893.55 -172.58,-666.08 227.47,-1345.97 893.55,-1518.55 1278.8,-330.23 4033.92,-2001.04 5667.62,-2991.79 822.39,-498.7 -618.36,366.31 494.01,-303.88l526.44 -317.47c1383.24,-834.58 2734.45,-1649.83 4199.97,-2457.54 420.66,-231.84 70.21,-37.88 0.77,1.4l0.26 0.48 61.88 -33.68c72.78,-39.77 143.16,-78.23 193.76,-114.22 560.91,-399.11 1339.18,-267.94 1738.29,292.97 399.11,560.91 267.94,1339.18 -292.97,1738.29 -156.76,111.48 -299.76,189.63 -447.64,270.54 117.81,-64.18 344.61,-187.52 -53.17,31.72 -1385.01,763.35 -2732.57,1576.39 -4112.09,2408.72l-526.44 317.47c-1411.83,850.61 -28.84,12.02 -494.01,294.1zm-10752.65 -398.42c-612.15,315.51 -1364.18,75.04 -1679.69,-537.11 -315.51,-612.15 -75.04,-1364.18 537.11,-1679.69 702.21,-364.16 1414.49,-798 2114.81,-1262.77 733.26,-486.65 1422.56,-983.48 2064.33,-1463.74 483.37,-361.71 964.47,-736.04 1405.77,-1130.61 417.41,-373.22 808.41,-774.1 1145.74,-1216.12 112.49,-147.4 210.58,-285.34 308.38,-422.88l35.42 -49.8c399.11,-560.91 1177.38,-692.08 1738.29,-292.97 560.91,399.11 692.08,1177.38 292.97,1738.29l-35.42 49.8c-120.5,169.46 -241.36,339.43 -357.22,491.24 -431.73,565.71 -932.79,1079.34 -1468,1557.9 -511.35,457.21 -1043.56,872.05 -1571.79,1267.33 -711.16,532.18 -1450.16,1066.26 -2181.51,1551.64 -764.31,507.24 -1553.04,986.61 -2349.19,1399.49zm-4976.08 -5617.25c250.83,1073.73 466.28,1995.89 829.55,2994.4 546.4,1501.89 1440.43,3082.46 2500.93,4582.03 1198.65,1694.93 2591.18,3262.01 3928.59,4485.82 852.35,779.94 1818.33,1517.01 2858.66,2135.68 918.69,546.33 1883.52,991.31 2862.42,1278.6 1512.98,444.03 3086.04,700.76 4680.06,823.49 1619.83,124.72 3250.16,111.13 4855.75,14.33 1253.33,-75.56 2405.97,-234.57 3619.39,-401.94 259.34,-35.76 521.44,-71.93 787.82,-107.75 523.65,-70.43 1034.38,-177.27 1549.67,-285.04 396.55,-82.94 795.42,-166.38 1061.48,-213.96 1254.01,-224.23 2314.25,-488.61 3324.07,-846.02 1023.53,-362.26 2011.78,-821.34 3110.38,-1430.9 752.22,-417.37 1476.65,-775.4 2199.75,-1132.77 823.14,-406.8 1644.59,-812.78 2378.83,-1235.1 250.61,-144.14 514.92,-343.41 776.78,-540.82 269.33,-203.03 536.55,-404.48 843.56,-593.26 367.88,-226.19 650.1,-408.89 903.79,-587.17 304.75,-214.16 571.08,-415.05 867.85,-650.15 1281.97,-1015.53 2355.05,-1501.43 3702.94,-2111.74 103.26,-46.75 208.25,-94.3 315.13,-142.9 832.06,-378.36 1687.96,-708.72 2551.44,-1042.01 404.82,-156.24 811.55,-313.23 1292.89,-507.9 588.15,-237.86 1241.69,-489.57 1894.97,-741.16 530.28,-204.24 1060.52,-408.45 1486.02,-577.33 19.36,-8.92 39.05,-17.41 59.06,-25.43 476.59,-190.76 926.55,-368.47 1369.65,-536.85 493.64,-187.58 955.57,-357.07 1394.28,-508.26 577.46,-199 1086.31,-385.66 1594.45,-572.05 628.54,-230.55 1256.11,-460.75 1995.01,-707.51 355.65,-119.18 718.6,-244.7 1085.46,-373.51 191.49,-67.24 419.38,-150.93 1086.55,-389.13l0.57 1.58 4.31 -1.58c223.2,-79.36 463.6,-163.89 833.77,-288.78 294.96,-99.51 583.61,-192.66 866.41,-276.15 986.91,-291.38 1873.76,-587.47 2819.37,-903.16l135 -45.07 219.11 -73.59c683.89,-229.33 1475.42,-494.78 2070.18,-783.92 589.91,-286.79 1140.3,-621.94 1510.96,-1030.84 283.87,-313.15 470.76,-693.54 485.53,-1167.08 -46.87,-529.56 -309.03,-979.76 -676.61,-1359.45 -435.86,-450.22 -1017.86,-816.35 -1604.4,-1109.89l-1.47 -0.64c-528.92,-239.57 -1215.2,-369.18 -1940.8,-425.04 -963.22,-74.15 -1962.4,-17.69 -2783.88,89.58 -20.36,4.1 -40.93,7.73 -61.7,10.85 -166.37,25.47 -334.2,50.91 -502.8,76.44 -662,100.26 -1336.49,202.43 -1974.08,315.93l-0.52 -2.97c-534.85,99.53 -1066.8,199.9 -1515.14,290.2 -426.36,85.87 -912.37,191.24 -1491.42,328.75l-1.09 -4.62c-646.52,154.98 -1240.65,290.14 -1813.48,407.52 -588.71,120.65 -1191.12,230.69 -1850.62,334.69 -873.76,137.38 -1764.84,338.97 -2654.15,540.15 -838.53,189.69 -1675.59,379.06 -2519.92,522.17l-0.27 -1.63 -9.5 1.63c-767.5,122.37 -1447,291.69 -2091.3,532.44 -616.9,230.51 -1212.51,530.1 -1833.92,920.45 -16.31,12.19 -32.98,24.08 -50.05,35.59 -74.07,50.03 -296.66,213.13 -594.36,431.27 -610.26,447.16 -1428.68,1046.82 -2200.32,1439.05 -348.75,529.3 -1049.09,717.57 -1621.68,416.08 -143.83,-75.73 -266.72,-175.62 -366.36,-292.02 -3.17,-3.65 -6.5,-6.99 -9.62,-10.72l0.37 -0.31c-314.77,-376.48 -389.65,-920.41 -146.86,-1381.52 135.51,-256.46 643.41,-762.46 773.83,-892.43l12.63 -12.59c715.18,-713.11 1479.66,-1465.88 2301.83,-2178.3 849.84,-736.4 1747.34,-1417.67 2689.57,-1948.11l0.46 0.81 19.07 -10.57c160.39,-86.21 335.19,-172.39 531.54,-262.45 171.04,-78.44 324.14,-144.37 467.09,-201.76 20.63,-9.46 41.61,-18.46 62.97,-26.9 461.9,-182.9 891.55,-461.6 1327.02,-744.09 195.44,-126.77 391.91,-254.21 600.93,-381.53 21.34,-14.45 43.18,-28.4 65.67,-41.69 440.44,-262.05 848.44,-474.86 1255.36,-668.93 292.82,-139.65 742.6,-334.85 1237.49,-548.7 495.13,-213.96 914.72,-447.88 1370.08,-701.73 196.84,-109.73 398.64,-222.25 530.8,-294.39 27.71,-16.92 56.28,-32.92 85.71,-47.89 800.64,-408.69 1543.38,-825.28 2292.77,-1245.6 268.82,-150.77 537.86,-301.69 1191.07,-659.48 202.62,-110.98 498.73,-275.82 797.13,-441.92 811,-451.45 1641.94,-913.99 2440.96,-1300.18 115.12,-55.64 465.6,-230.16 817.26,-405.28 722.95,-359.97 1444.9,-719.46 2223.01,-1035.03 595.49,-241.5 1076.55,-448.85 1513.09,-684.92 425.75,-230.24 837.43,-502.39 1317.14,-884.36 335.84,-267.42 833.52,-724.16 1204.79,-1188.66 201.85,-252.54 354.87,-479.43 379.35,-608.25 164.98,-867.95 -187.72,-1583.62 -756.78,-2174.5 -698.38,-725.16 -1731.66,-1308.79 -2662.43,-1773.42 -264.72,-132.15 -724.8,-282.98 -1223.16,-422.15 -688.62,-192.31 -1423.51,-355.67 -1869.77,-428.85 -353.42,-57.95 -620.81,-89.76 -878.34,-102.3 -265.41,-12.91 -542.13,-7.18 -905.01,10.31 -2962.78,142.84 -3866.19,556.63 -6159.14,1606.87 -495.33,226.88 -787.62,362.17 -904.95,415.21 -532.45,240.69 -1016.28,473.94 -1499.28,706.78 -610.32,294.23 -1219.47,587.9 -1874.19,875.18 -171.76,75.36 -467.17,200.39 -755.08,322.24 -718.72,304.2 -1376.09,582.44 -2087.72,1000.36 -475.36,279.16 -902.85,469.74 -1329.13,659.75 -292.55,130.4 -584.49,260.55 -846.55,399.99 -968.51,515.33 -1846.36,949.84 -2732.11,1388.24 -169.09,83.69 350.53,-173.53 -754.94,376.81l-0.99 -1.98 -3.89 1.98c-79.03,39.24 -155.55,77.03 -229.79,113.67 -776.3,383.22 -1269.46,626.69 -1881.64,1257.86l-0.15 -0.14 -9.61 9.91 -35.2 35.47c-206.59,208.24 -414.09,417.37 -664.49,637.36l-0.27 -0.31c-82.03,72.55 -165.06,145.79 -248.69,219.54 -539.06,475.46 -972.92,710.23 -1470.52,1208.62l-158.96 291.29c-1396.56,1398.75 -3881.42,5609.91 -5423.24,4545.32 -1410.5,-973.94 912.51,-3450.55 1728.19,-4483.45 244.22,-309.11 500.87,-606.36 766.31,-897.37 370.81,-406.55 704.97,-825 1040.71,-1245.44 236.32,-295.93 473.4,-592.82 739.43,-906.61l148.58 -175.26c778.9,-918.88 1565.62,-1846.96 2275.67,-2653.21l1.77 1.55c12.1,-13.72 24.48,-27.29 37.29,-40.61 170.61,-177.77 389.87,-415.07 609.5,-652.78 373.08,-403.79 747.42,-808.93 1159.83,-1206.15l14.3 -13.95c173.25,-164.67 575.49,-536.64 975.97,-906.97 1165.41,-1077.7 2308.93,-2135.17 3248.39,-3432.25l1.39 1.01c550.81,-769.08 1130.42,-1371.33 1716.47,-1980.26 305.65,-317.58 613.21,-637.14 883.63,-945.14 195.26,-222.39 423.41,-477.18 682.44,-763.3 373.85,-412.94 571.78,-630.05 681.83,-749.21 438.44,-474.7 851.39,-839 1227.42,-1170.72 709.12,-625.57 1239.82,-1093.73 1496.96,-2359.27 40.2,-197.85 -33.66,-426.4 -159.25,-655.61 -188.45,-343.95 -484.72,-679.5 -768.27,-970.12 -345.13,-353.75 -872.82,-668.6 -1460.35,-931.14 -774.45,-346.07 -1630.27,-586.73 -2335.54,-709.21 -454.19,-78.88 -1139.91,-150.93 -1796.41,-179.53 -515.48,-22.44 -1007.13,-18.42 -1331.88,30.92 -1177.66,178.93 -1944.72,350.99 -2635.93,618.11 -698.04,269.76 -1404.11,669.68 -2437.62,1295.19 -592.32,358.48 -1176.22,781.3 -1733.81,1242.7 -604.87,500.52 -1171.69,1038.86 -1680,1584.68 -239.05,256.7 -779.48,821.54 -1320.12,1386.58 -517.73,541.13 -1035.01,1081.76 -1723.37,1837.27 -396.7,435.39 -831.67,881.4 -1265.85,1326.59 -331.12,339.51 -661.76,678.54 -1011.52,1054.76 -475.02,510.95 -959.87,1012.61 -1461.24,1516.68 -493.73,496.39 -987.61,978.62 -1493.85,1464.04 -388.56,372.57 -819.89,750.06 -1251.68,1127.95 -533.75,467.14 -1068.34,934.99 -1521.63,1405.28l-0.14 -0.13 -4.75 5.01c-787.36,809.05 -1558.7,1422.55 -2391.3,2084.74l-120.37 95.76c-501.93,399.48 -1045.06,801.09 -1590.18,1204.18 -376.36,278.29 -753.53,557.2 -956.18,711.35 -439.33,334.2 -858.79,627.46 -1277.21,919.99 -464.68,324.88 -928.09,648.88 -1357.06,984.18 -15.16,13.45 -30.7,26.62 -46.66,39.45 -509.51,411.76 -918.4,691.66 -1398.56,1020.35 -274.77,188.12 95.2,-67.5 -192.22,130.18 -12.73,9.69 -25.61,19.25 -38.8,28.53 -41.73,29.36 -67.68,49.71 -100.79,75.67 -347.4,272.4 -1010.15,792.04 -1629.48,956.78 -907.59,241.43 -1633.75,16.66 -1921.27,-1064.23 -140.64,-528.82 -39.02,-1368.96 47.82,-2086.88 36.02,-297.77 69.02,-570.47 74.21,-680.95 44.94,-955.73 55.42,-1581.89 -31.66,-2141.92 -83.89,-539.49 -268.79,-1095.8 -613.68,-1922.77 -10.09,-19.97 -19.74,-40.3 -28.86,-61.02 -169.48,-384.66 -23.04,-60.06 -210.8,-493.79 -428.95,-990.83 -792.13,-1829.75 -1520.07,-2665.46l3.05 -2.65c-251.65,-282.63 -675.73,-685.6 -1122.89,-1069.68 -393.91,-338.34 -790.02,-646.78 -1072.42,-817.49 -966.9,-584.5 -1774.63,-1007.24 -2600.67,-1267.97 -808.84,-255.31 -1667.12,-366.7 -2759.19,-338.89l-115.2 2.92c-1331.01,33.6 -2975.85,75.15 -4137.94,459.18 -391.74,129.45 -716.97,271.36 -963.83,451.29 -220.64,160.82 -409.54,375.51 -569.88,674.06 -309.15,575.63 -437.06,1026.19 -426.09,1448.16 11.66,448.55 181.65,961.03 461.5,1609.76 206.47,478.61 363.79,942.57 518.63,1399.23 211.87,624.84 418.35,1233.8 751,1801.58 415.7,709.52 784.24,1339.73 955.29,1639.03 296.78,519.29 602.76,1066.98 931.61,1676.64 182.13,338.08 335.62,598.38 459.09,807.76 596.74,1011.99 671.82,1139.32 757.28,3051.55l-0.64 0.03 0.64 14.62c15.51,447.26 5.62,795.91 -33.7,1137.22 -38.47,333.78 -106.32,665.8 -207.35,1084.17 -192.61,797.64 -251.13,1403.78 -328.84,2208.94l-18.32 189.3c-65.02,668.4 -151.69,1232.14 -238.41,1796.34 -128.24,834.26 -256.66,1669.61 -277.19,2386.98 -25.26,882.99 133.06,1327.87 325,1867.14 133.45,374.97 279.15,784.34 412.22,1353.76l18.46 78.99z"/>
  <path class="fil0 str0" d="M26187.81 44771.44c1383.24,-834.58 2734.45,-1649.83 4199.97,-2457.54 420.66,-231.84 70.21,-37.88 0.77,1.4l0.26 0.48 61.88 -33.68c72.78,-39.77 143.16,-78.23 193.76,-114.22 560.91,-399.11 1339.18,-267.94 1738.29,292.97 399.11,560.91 267.94,1339.18 -292.97,1738.29 -156.76,111.48 -299.76,189.63 -447.64,270.54 117.81,-64.18 344.61,-187.52 -53.17,31.72 -1385.01,763.35 -2732.57,1576.39 -4112.09,2408.72l-526.44 317.47c-1411.83,850.61 -28.84,12.02 -494.01,294.1 -1753.12,1063.18 -4709.65,2856.13 -6331.68,3274.99 -666.08,172.58 -1345.97,-227.47 -1518.55,-893.55 -172.58,-666.08 227.47,-1345.97 893.55,-1518.55 1278.8,-330.23 4033.92,-2001.04 5667.62,-2991.79 822.39,-498.7 -618.36,366.31 494.01,-303.88l526.44 -317.47zm-3373.66 6529.26c938.86,-119.75 1796.77,-279.11 2658.12,-479.34 840.44,-195.37 1695.3,-436.21 2641.91,-721.21 388.42,-116.94 801.2,-218.69 1211.38,-319.79 711.75,-175.43 1414.53,-348.66 2030.48,-647.83 115.58,-56.13 216.64,-106.14 317.58,-156.09 175.07,-86.63 350.07,-173.21 509.59,-248.92 622.93,-293.94 1366.22,-27.23 1660.16,595.7 293.94,622.93 27.23,1366.22 -595.7,1660.16 -170.05,80.7 -320.28,155.04 -470.53,229.38 -116.76,57.78 -233.52,115.56 -337.12,165.87 -847.65,411.7 -1677.89,616.35 -2518.76,823.61 -355.52,87.63 -713.31,175.83 -1094.18,290.49 -970.79,292.28 -1867.28,543.87 -2798.17,760.27 -909.97,211.54 -1843.52,383.36 -2902.26,518.4 -682.26,86.29 -1305.31,-396.84 -1391.6,-1079.1 -86.29,-682.26 396.84,-1305.31 1079.1,-1391.6zm559.78 -12233.12c560.91,399.11 692.08,1177.38 292.97,1738.29l-35.42 49.8c-120.5,169.46 -241.36,339.43 -357.22,491.24 -431.73,565.71 -932.79,1079.34 -1468,1557.9 -511.35,457.21 -1043.56,872.05 -1571.79,1267.33 -711.16,532.18 -1450.16,1066.26 -2181.51,1551.64 -764.31,507.24 -1553.04,986.61 -2349.19,1399.49 -612.15,315.51 -1364.18,75.04 -1679.69,-537.11 -315.51,-612.15 -75.04,-1364.18 537.11,-1679.69 702.21,-364.16 1414.49,-798 2114.81,-1262.77 733.26,-486.65 1422.56,-983.48 2064.33,-1463.74 483.37,-361.71 964.47,-736.04 1405.77,-1130.61 417.41,-373.22 808.41,-774.1 1145.74,-1216.12 112.49,-147.4 210.58,-285.34 308.38,-422.88l35.42 -49.8c399.11,-560.91 1177.38,-692.08 1738.29,-292.97zm-13076.92 1005.69c133.45,374.97 279.15,784.34 412.22,1353.76l18.46 78.99c250.83,1073.73 466.28,1995.89 829.55,2994.4 546.4,1501.89 1440.43,3082.46 2500.93,4582.03 1198.65,1694.93 2591.18,3262.01 3928.59,4485.82 852.35,779.94 1818.33,1517.01 2858.66,2135.68 918.69,546.33 1883.52,991.31 2862.42,1278.6 1512.98,444.03 3086.04,700.76 4680.06,823.49 1619.83,124.72 3250.16,111.13 4855.75,14.33 1253.33,-75.56 2405.97,-234.57 3619.39,-401.94 259.34,-35.76 521.44,-71.93 787.82,-107.75 523.65,-70.43 1034.38,-177.27 1549.67,-285.04 396.55,-82.94 795.42,-166.38 1061.48,-213.96 1254.01,-224.23 2314.25,-488.61 3324.07,-846.02 1023.53,-362.26 2011.78,-821.34 3110.38,-1430.9 752.22,-417.37 1476.65,-775.4 2199.75,-1132.77 823.14,-406.8 1644.59,-812.78 2378.83,-1235.1 250.61,-144.14 514.92,-343.41 776.78,-540.82 269.33,-203.03 536.55,-404.48 843.56,-593.26 367.88,-226.19 650.1,-408.89 903.79,-587.17 304.75,-214.16 571.08,-415.05 867.85,-650.15 1281.97,-1015.53 2355.05,-1501.43 3702.94,-2111.74 103.26,-46.75 208.25,-94.3 315.13,-142.9 832.06,-378.36 1687.96,-708.72 2551.44,-1042.01 404.82,-156.24 811.55,-313.23 1292.89,-507.9 588.15,-237.86 1241.69,-489.57 1894.97,-741.16 530.28,-204.24 1060.52,-408.45 1486.02,-577.33 19.36,-8.92 39.05,-17.41 59.06,-25.43 476.59,-190.76 926.55,-368.47 1369.65,-536.85 493.64,-187.58 955.57,-357.07 1394.28,-508.26 577.46,-199 1086.31,-385.66 1594.45,-572.05 628.54,-230.55 1256.11,-460.75 1995.01,-707.51 355.65,-119.18 718.6,-244.7 1085.46,-373.51 191.49,-67.24 419.38,-150.93 1086.55,-389.13l0.57 1.58 4.31 -1.58c223.2,-79.36 463.6,-163.89 833.77,-288.78 294.96,-99.51 583.61,-192.66 866.41,-276.15 986.91,-291.38 1873.76,-587.47 2819.37,-903.16l135 -45.07 219.11 -73.59c683.89,-229.33 1475.42,-494.78 2070.18,-783.92 589.91,-286.79 1140.3,-621.94 1510.96,-1030.84 283.87,-313.15 470.76,-693.54 485.53,-1167.08 -46.87,-529.56 -309.03,-979.76 -676.61,-1359.45 -435.86,-450.22 -1017.86,-816.35 -1604.4,-1109.89l-1.47 -0.64c-528.92,-239.57 -1215.2,-369.18 -1940.8,-425.04 -963.22,-74.15 -1962.4,-17.69 -2783.88,89.58 -20.36,4.1 -40.93,7.73 -61.7,10.85 -166.37,25.47 -334.2,50.91 -502.8,76.44 -662,100.26 -1336.49,202.43 -1974.08,315.93l-0.52 -2.97c-534.85,99.53 -1066.8,199.9 -1515.14,290.2 -426.36,85.87 -912.37,191.24 -1491.42,328.75l-1.09 -4.62c-646.52,154.98 -1240.65,290.14 -1813.48,407.52 -588.71,120.65 -1191.12,230.69 -1850.62,334.69 -873.76,137.38 -1764.84,338.97 -2654.15,540.15 -838.53,189.69 -1675.59,379.06 -2519.92,522.17l-0.27 -1.63 -9.5 1.63c-767.5,122.37 -1447,291.69 -2091.3,532.44 -616.9,230.51 -1212.51,530.1 -1833.92,920.45 -16.31,12.19 -32.98,24.08 -50.05,35.59 -74.07,50.03 -296.66,213.13 -594.36,431.27 -610.26,447.16 -1428.68,1046.82 -2200.32,1439.05 -348.75,529.3 -1049.09,717.57 -1621.68,416.08 -143.83,-75.73 -266.72,-175.62 -366.36,-292.02 -3.17,-3.65 -6.5,-6.99 -9.62,-10.72l0.37 -0.31c-314.77,-376.48 -389.65,-920.41 -146.86,-1381.52 135.51,-256.46 643.41,-762.46 773.83,-892.43l12.63 -12.59c715.18,-713.11 1479.66,-1465.88 2301.83,-2178.3 849.84,-736.4 1747.34,-1417.67 2689.57,-1948.11l0.46 0.81 19.07 -10.57c160.39,-86.21 335.19,-172.39 531.54,-262.45 171.04,-78.44 324.14,-144.37 467.09,-201.76 20.63,-9.46 41.61,-18.46 62.97,-26.9 461.9,-182.9 891.55,-461.6 1327.02,-744.09 195.44,-126.77 391.91,-254.21 600.93,-381.53 21.34,-14.45 43.18,-28.4 65.67,-41.69 440.44,-262.05 848.44,-474.86 1255.36,-668.93 292.82,-139.65 742.6,-334.85 1237.49,-548.7 495.13,-213.96 914.72,-447.88 1370.08,-701.73 196.84,-109.73 398.64,-222.25 530.8,-294.39 27.71,-16.92 56.28,-32.92 85.71,-47.89 800.64,-408.69 1543.38,-825.28 2292.77,-1245.6 268.82,-150.77 537.86,-301.69 1191.07,-659.48 202.62,-110.98 498.73,-275.82 797.13,-441.92 811,-451.45 1641.94,-913.99 2440.96,-1300.18 115.12,-55.64 465.6,-230.16 817.26,-405.28 722.95,-359.97 1444.9,-719.46 2223.01,-1035.03 595.49,-241.5 1076.55,-448.85 1513.09,-684.92 425.75,-230.24 837.43,-502.39 1317.14,-884.36 335.84,-267.42 833.52,-724.16 1204.79,-1188.66 201.85,-252.54 354.87,-479.43 379.35,-608.25 164.98,-867.95 -187.72,-1583.62 -756.78,-2174.5 -698.38,-725.16 -1731.66,-1308.79 -2662.43,-1773.42 -264.72,-132.15 -724.8,-282.98 -1223.16,-422.15 -688.62,-192.31 -1423.51,-355.67 -1869.77,-428.85 -353.42,-57.95 -620.81,-89.76 -878.34,-102.3 -265.41,-12.91 -542.13,-7.18 -905.01,10.31 -2962.78,142.84 -3866.19,556.63 -6159.14,1606.87 -495.33,226.88 -787.62,362.17 -904.95,415.21 -532.45,240.69 -1016.28,473.94 -1499.28,706.78 -610.32,294.23 -1219.47,587.9 -1874.19,875.18 -171.76,75.36 -467.17,200.39 -755.08,322.24 -718.72,304.2 -1376.09,582.44 -2087.72,1000.36 -475.36,279.16 -902.85,469.74 -1329.13,659.75 -292.55,130.4 -584.49,260.55 -846.55,399.99 -968.51,515.33 -1846.36,949.84 -2732.11,1388.24 -169.09,83.69 350.53,-173.53 -754.94,376.81l-0.99 -1.98 -3.89 1.98c-79.03,39.24 -155.55,77.03 -229.79,113.67 -776.3,383.22 -1269.46,626.69 -1881.64,1257.86l-0.15 -0.14 -9.61 9.91 -35.2 35.47c-206.59,208.24 -414.09,417.37 -664.49,637.36l-0.27 -0.31c-82.03,72.55 -165.06,145.79 -248.69,219.54 -539.06,475.46 -972.92,710.23 -1470.52,1208.62l-158.96 291.29c-1396.56,1398.75 -3881.42,5609.91 -5423.24,4545.32 -1410.5,-973.94 912.51,-3450.55 1728.19,-4483.45 244.22,-309.11 500.87,-606.36 766.31,-897.37 370.81,-406.55 704.97,-825 1040.71,-1245.44 236.32,-295.93 473.4,-592.82 739.43,-906.61l148.58 -175.26c778.9,-918.88 1565.62,-1846.96 2275.67,-2653.21l1.77 1.55c12.1,-13.72 24.48,-27.29 37.29,-40.61 170.61,-177.77 389.87,-415.07 609.5,-652.78 373.08,-403.79 747.42,-808.93 1159.83,-1206.15l14.3 -13.95c173.25,-164.67 575.49,-536.64 975.97,-906.97 1165.41,-1077.7 2308.93,-2135.17 3248.39,-3432.25l1.39 1.01c550.81,-769.08 1130.42,-1371.33 1716.47,-1980.26 305.65,-317.58 613.21,-637.14 883.63,-945.14 195.26,-222.39 423.41,-477.18 682.44,-763.3 373.85,-412.94 571.78,-630.05 681.83,-749.21 438.44,-474.7 851.39,-839 1227.42,-1170.72 709.12,-625.57 1239.82,-1093.73 1496.96,-2359.27 40.2,-197.85 -33.66,-426.4 -159.25,-655.61 -188.45,-343.95 -484.72,-679.5 -768.27,-970.12 -345.13,-353.75 -872.82,-668.6 -1460.35,-931.14 -774.45,-346.07 -1630.27,-586.73 -2335.54,-709.21 -454.19,-78.88 -1139.91,-150.93 -1796.41,-179.53 -515.48,-22.44 -1007.13,-18.42 -1331.88,30.92 -1177.66,178.93 -1944.72,350.99 -2635.93,618.11 -698.04,269.76 -1404.11,669.68 -2437.62,1295.19 -592.32,358.48 -1176.22,781.3 -1733.81,1242.7 -604.87,500.52 -1171.69,1038.86 -1680,1584.68 -239.05,256.7 -779.48,821.54 -1320.12,1386.58 -517.73,541.13 -1035.01,1081.76 -1723.37,1837.27 -396.7,435.39 -831.67,881.4 -1265.85,1326.59 -331.12,339.51 -661.76,678.54 -1011.52,1054.76 -475.02,510.95 -959.87,1012.61 -1461.24,1516.68 -493.73,496.39 -987.61,978.62 -1493.85,1464.04 -388.56,372.57 -819.89,750.06 -1251.68,1127.95 -533.75,467.14 -1068.34,934.99 -1521.63,1405.28l-0.14 -0.13 -4.75 5.01c-787.36,809.05 -1558.7,1422.55 -2391.3,2084.74l-120.37 95.76c-501.93,399.48 -1045.06,801.09 -1590.18,1204.18 -376.36,278.29 -753.53,557.2 -956.18,711.35 -439.33,334.2 -858.79,627.46 -1277.21,919.99 -464.68,324.88 -928.09,648.88 -1357.06,984.18 -15.16,13.45 -30.7,26.62 -46.66,39.45 -509.51,411.76 -918.4,691.66 -1398.56,1020.35 -274.77,188.12 95.2,-67.5 -192.22,130.18 -12.73,9.69 -25.61,19.25 -38.8,28.53 -41.73,29.36 -67.68,49.71 -100.79,75.67 -347.4,272.4 -1010.15,792.04 -1629.48,956.78 -907.59,241.43 -1633.75,16.66 -1921.27,-1064.23 -140.64,-528.82 -39.02,-1368.96 47.82,-2086.88 36.02,-297.77 69.02,-570.47 74.21,-680.95 44.94,-955.73 55.42,-1581.89 -31.66,-2141.92 -83.89,-539.49 -268.79,-1095.8 -613.68,-1922.77 -10.09,-19.97 -19.74,-40.3 -28.86,-61.02 -169.48,-384.66 -23.04,-60.06 -210.8,-493.79 -428.95,-990.83 -792.13,-1829.75 -1520.07,-2665.46l3.05 -2.65c-251.65,-282.63 -675.73,-685.6 -1122.89,-1069.68 -393.91,-338.34 -790.02,-646.78 -1072.42,-817.49 -966.9,-584.5 -1774.63,-1007.24 -2600.67,-1267.97 -808.84,-255.31 -1667.12,-366.7 -2759.19,-338.89l-115.2 2.92c-1331.01,33.6 -2975.85,75.15 -4137.94,459.18 -391.74,129.45 -716.97,271.36 -963.83,451.29 -220.64,160.82 -409.54,375.51 -569.88,674.06 -309.15,575.63 -437.06,1026.19 -426.09,1448.16 11.66,448.55 181.65,961.03 461.5,1609.76 206.47,478.61 363.79,942.57 518.63,1399.23 211.87,624.84 418.35,1233.8 751,1801.58 415.7,709.52 784.24,1339.73 955.29,1639.03 296.78,519.29 602.76,1066.98 931.61,1676.64 182.13,338.08 335.62,598.38 459.09,807.76 596.74,1011.99 671.82,1139.32 757.28,3051.55l-0.64 0.03 0.64 14.62c15.51,447.26 5.62,795.91 -33.7,1137.22 -38.47,333.78 -106.32,665.8 -207.35,1084.17 -192.61,797.64 -251.13,1403.78 -328.84,2208.94l-18.32 189.3c-65.02,668.4 -151.69,1232.14 -238.41,1796.34 -128.24,834.26 -256.66,1669.61 -277.19,2386.98 -25.26,882.99 133.06,1327.87 325,1867.14z"/>
  <path class="fil0 str0" d="M13737.48 57865.9c1533.54,955.98 3617.58,1695.81 5434.39,1750.77 146.27,4.43 3639.12,-34.29 2524.26,-682.69 -652.77,-379.65 -1407.78,-662.48 -2119.5,-1082.18 -4562.08,-2727.49 -9205.73,-8469.47 -10708.24,-13586.71 -225.85,-769.18 -398.9,-1520.45 -606.08,-2286.65 -1387.15,7.8 -2712.57,1193.6 -3073,2524.83 -1061.39,3920.19 3645.59,9628.51 6510.27,11923.92 658.53,527.68 1324.32,989.25 2037.9,1438.71z"/>
 </g>
 <g id="Warstwa_x0020_2">
  <metadata id="CorelCorpID_1Corel-Layer"/>
  <path class="fil0" d="M79549.81 41228.19c-1019.01,340.12 -1965.04,657.81 -2998.32,962.88 -559.39,165.15 -1088.28,350.39 -1636.7,545.4 -730.86,260.93 -1460.5,520.9 -2196.42,767.52 -1193.29,398.5 -2381.03,866.47 -3579.7,1279.56 -945.05,325.69 -1780.1,650.36 -2705.33,1020.7 -1146.2,456.72 -2291.36,879.36 -3440.05,1343.92 -1282.69,518.76 -2527.76,953.89 -3795.5,1530.38 -1427.55,649.16 -2513.59,1106.7 -3759.29,2093.5 -685.01,542.65 -1142.87,866.55 -1888.82,1325.21 -586.33,360.53 -1021.74,784.76 -1654.52,1148.73 -1496.17,860.57 -3075.25,1535.39 -4593.23,2377.64 -2333.63,1294.82 -4195.14,1949.11 -6820.19,2418.52 -912.18,163.12 -1729.95,378.13 -2664.86,503.88 -1541.06,207.27 -2937.56,425.25 -4499.99,519.46 -3325.36,200.49 -6745.79,56.84 -9960.61,-886.65 -2289.36,-671.89 -4460.12,-2091.95 -6209.36,-3692.6 -2668.4,-2441.75 -5518.89,-6145.29 -6761.56,-9561.02 -402.97,-1107.61 -625.77,-2075.96 -891.95,-3214.99 -343.64,-1470.51 -815.39,-1830.75 -766.52,-3538.28 39.62,-1384.35 383.51,-2858.2 520.49,-4266.33 92.82,-954.26 147.89,-1627.57 376.45,-2574.02 173.02,-716.48 232.84,-1141.2 206.87,-1889.36 -91.24,-2041.4 -159.88,-1632.98 -1069.88,-3322.2 -605.92,-1123.3 -1218.47,-2177.39 -1862.49,-3276.61 -654.83,-1117.69 -839.18,-2169.94 -1342.87,-3337.53 -673.87,-1562.11 -821.7,-2586.91 13.42,-4141.9 504.3,-939.01 1244.7,-1391.57 2241.71,-1721.05 1360.24,-449.51 3174.99,-484.04 4614.47,-520.7 2488.85,-63.38 3938.51,516.09 6033.69,1782.64 709.05,428.62 1933.2,1510.44 2490.11,2138.85 965.89,1108.89 1352.36,2163.09 1931.07,3476.63 815.08,1937.94 873.82,2623.1 776.74,4687.23 -26.71,567.89 -278.64,1949.95 -161.1,2391.86 173.19,651.1 1490.16,-504.22 1727.72,-671.35 572.7,-394.07 1017,-686.48 1566.1,-1130.23 875.67,-691.54 1814.96,-1282.12 2710.23,-1963.15 845.83,-643.42 1685.74,-1235.37 2521.94,-1900.88 849.82,-676.34 1632.24,-1289.83 2394.49,-2073.08 841.37,-872.91 1911.28,-1708.08 2807.49,-2567.41 1009.71,-968.16 1953.05,-1906.57 2906.26,-2931.89 746.68,-803.17 1520.88,-1552.02 2267.61,-2371.58 1001.24,-1098.91 2040.23,-2145.83 3053.25,-3233.62 1063.42,-1141.9 2345.84,-2238.21 3682.37,-3047.11 2168.26,-1312.29 3008.71,-1695.83 5532.53,-2079.31 879.29,-133.61 2628.81,-1.96 3523.8,153.49 1436.89,249.56 3447.61,944.04 4479.48,2001.68 694.22,711.55 1470.14,1678.57 1254.67,2739.01 -474.35,2334.5 -1572.49,2555.65 -3027.11,4130.58 -465.78,504.3 -891.18,971.51 -1344.74,1488.09 -853.56,972.16 -1755.21,1754.92 -2528.25,2836.5 -1261.17,1741.26 -2836.61,3047.25 -4375.72,4510.12 -595.95,573.01 -1164.98,1229.93 -1744.57,1833.82 -811.61,921.58 -1614.89,1871.58 -2409.6,2808.93 -622.36,734.08 -1151.73,1465.14 -1809.44,2186.23 -249.1,273.1 -483.2,538.66 -712.6,829.01 -381.96,505.35 -701.83,1025.65 -1103.14,1526.24 -297.09,364.83 -571.84,691.67 -840.69,1080.97 550.08,-808.79 1151.19,-1365.97 1728.81,-2116.42 603.34,-756.36 1387.53,-1539.8 2076.38,-2229.76 593.18,-594.12 1283.11,-1191.81 1915.26,-1751.02 221.26,-194.39 428.8,-405.29 636.21,-614.24 824.87,-850.46 1422.48,-1108.66 2453.22,-1620.55 1163.31,-579.12 2308.61,-1134.07 3457.75,-1745.52 713.86,-379.85 1402.55,-607.09 2131.74,-1035.33 1025.52,-602.27 1903.17,-920.83 2974.63,-1390.96 1130.61,-496.1 2226.5,-1065.23 3358.82,-1577.08 3160.04,-1428.46 3952.05,-1957.57 7518.2,-2129.5 801.94,-38.66 1243.19,-24.37 2042.14,106.64 861.31,141.24 2696.44,587.45 3449.37,963.31 2051.28,1023.98 4597.29,2617.03 4088.16,5295.57 -159.64,839.85 -1378.01,2022.16 -2033.36,2543.98 -1080.59,860.42 -1880.64,1240.07 -3137.85,1749.95 -1012.94,410.82 -1979.54,928.86 -2967.03,1406.13 -1053.66,509.26 -2149.88,1146.15 -3184.38,1712.8 -1186.89,650.13 -2301.29,1306.02 -3513.13,1924.61 -734.49,394.87 -1275.48,734.37 -2059.84,1073.31 -839.2,362.65 -1559.82,678.39 -2351.24,1149.27 -727.16,437.51 -1375.2,940.72 -2169.41,1255.2 -328.24,128.47 -619.07,260.62 -929.76,427.63 -1730.66,974.3 -3320.37,2522.91 -4722.84,3921.33 -76.1,75.93 -512.22,508.36 -561.85,602.28 54.34,64.83 2901.28,-2058.74 3137.07,-2218.04 1450.93,-926.15 2783.38,-1413.58 4478.2,-1683.79 1751.37,-296.86 3414.11,-783.29 5188.72,-1062.32 1252.81,-197.59 2336.77,-427.88 3567.53,-722.94 995.85,-236.5 2071.68,-442.98 3080.33,-630.63 819.4,-145.87 1680.4,-270.79 2506.17,-397.25 1637.68,-223.69 3962.24,-267.32 5484.63,422.26 1419.8,702.34 2872.87,1803.69 3015.75,3514.62 19.43,1727.58 -1275.68,2721.34 -2700.47,3414.03 -725.2,352.56 -1667.96,657.46 -2435.77,916.1z"/>
  <path class="fil2" d="M79945.32 42409.83l-135 45.07c-990.35,330.63 -1919.17,640.73 -2907.27,932.46 -276.56,81.65 -532.09,163.72 -778.51,246.85 -170.44,57.5 -466.85,162.45 -790.38,277.48l0.55 1.54c-63.67,22.73 -183.05,65.01 -1106.07,389.13 -364.64,128.03 -734.5,255.84 -1114.76,383.27 -569.82,190.29 -1247.71,438.95 -1926.65,687.99 -568.67,208.6 -1138.06,417.46 -1643.29,591.57 -506.31,174.49 -934.47,330.21 -1325.92,478.96 -441.97,167.95 -872.18,337.76 -1320.81,517.33 -21.71,8.7 -43.54,16.69 -65.43,24.1 -576.2,229.18 -1042.42,408.74 -1508.95,588.42 -599.14,230.74 -1198.68,461.65 -1865.67,731.4 -397.54,160.78 -860.93,339.63 -1322.19,517.66 -798.38,308.16 -1589.74,613.61 -2424.48,993.19 -106.88,48.6 -211.87,96.15 -315.13,142.9 -1203.99,545.16 -2162.51,979.18 -3185.38,1789.46 -388.22,307.55 -693.36,539.95 -975.27,738.05 -332.94,233.98 -652.66,442.59 -1030.73,675.05 -231.39,142.28 -439.01,298.8 -648.26,456.54 -301.87,227.58 -606.58,457.3 -1040.44,706.84 -864.52,497.25 -1689.2,904.84 -2515.55,1313.22 -714.67,353.21 -1430.69,707.08 -2092.33,1074.19 -1235.01,685.25 -2344.36,1200.76 -3491.24,1606.68 -1160.6,410.78 -2343.68,708.29 -3714.69,953.44 -438.83,78.47 -716.76,136.62 -993.12,194.42 -553.35,115.73 -1101.79,230.46 -1725.45,314.34 -266.38,35.82 -528.48,71.99 -787.82,107.75 -1268.58,174.98 -2473.62,341.21 -3804.95,421.48 -1719.75,103.69 -3462.35,118.52 -5187.77,-14.33 -1751.21,-134.84 -3495.81,-421.69 -5197.64,-921.15 -1193.1,-350.16 -2346.95,-879.36 -3428.84,-1522.74 -1176.41,-699.6 -2282.26,-1545.45 -3268.8,-2448.18 -1475.67,-1350.33 -2997.44,-3058.59 -4289.93,-4886.22 -1174.4,-1660.63 -2174.79,-3439.36 -2803.67,-5167.97 -423.96,-1165.31 -651.97,-2141.26 -917.43,-3277.6l-18.46 -78.99c-103,-440.75 -223.62,-779.65 -334.1,-1090.08 -274.32,-770.74 -500.61,-1406.55 -461.72,-2765.58 26.7,-933.16 161.81,-1812.02 296.73,-2689.72 91.55,-595.57 183.04,-1190.68 228.65,-1659.62l18.32 -189.3c87.7,-908.74 153.75,-1592.85 387.42,-2560.5 71.98,-298.09 120.57,-536.7 148.77,-781.43 26.89,-233.33 34.13,-467.29 24.41,-761.27l-0.49 0.02c-57.29,-1281.99 -97.33,-1349.88 -415.48,-1889.43 -131.03,-222.2 -293.95,-498.5 -507.91,-895.66 -277.05,-513.63 -580.34,-1054.67 -902.31,-1618.04 -447.69,-783.35 -707.46,-1229.83 -935.77,-1619.51 -473.21,-807.71 -716.36,-1524.78 -965.84,-2260.56 -133.55,-393.89 -269.26,-794.09 -450.27,-1213.69 -394.01,-913.37 -634.89,-1694.37 -656.82,-2537.48 -22.62,-869.69 193.11,-1709.07 719.07,-2688.4 343.95,-640.45 777.42,-1121.57 1302.3,-1504.14 498.64,-363.45 1042.15,-612.6 1647.41,-812.61 1486.3,-491.16 3351.38,-538.28 4860.6,-576.38l115.2 -2.92c1396.74,-35.56 2507.76,111.09 3569.75,446.31 1044.78,329.78 2009.52,830.07 3137.77,1512.11 394.28,238.33 909.46,636.46 1404.46,1061.63 522.76,449.02 1042.21,947.27 1373.74,1321.36l6.59 7.65 3.17 -2.76c960.83,1103.08 1400.82,2119.4 1920.47,3319.76 51.25,118.41 -104.27,-240.86 210.8,474.25 15.24,34.61 28.67,69.56 40.55,104.72 425.67,1020.54 658.78,1738.93 777.77,2504.07 121.77,783.05 113.08,1531.57 60.96,2639.96 -5.94,126.23 -16.76,256.22 -30.49,390.95 395.9,-271.33 744.53,-513.9 1136.84,-830.94 23.26,-18.7 47.01,-36.36 71.15,-53.12 490.01,-383.5 978.98,-725.36 1469.29,-1068.17 411.7,-287.83 824.46,-576.41 1199.09,-861.39 442.92,-336.92 709.67,-534.17 975.7,-730.89 495.72,-366.56 989.62,-731.77 1521.82,-1155.34l120.37 -95.76c772.65,-614.52 1488.59,-1183.96 2152.11,-1864.96 513.14,-532.51 1095.94,-1042.55 1677.83,-1551.82 394.94,-345.64 789.46,-690.92 1163.78,-1049.83 503.44,-482.72 986.13,-953.8 1454.79,-1424.98 461.02,-463.51 924.46,-943.74 1402.64,-1458.08 329.67,-354.61 689.87,-723.95 1050.6,-1093.82 394.62,-404.63 789.97,-810.01 1207.25,-1267.99 459.99,-504.86 1115.95,-1190.45 1772.19,-1876.35 332.52,-347.54 665.72,-695.81 1290.82,-1367.04 588.42,-631.84 1234.83,-1246.96 1914.38,-1809.28 648.81,-536.89 1334.24,-1032.51 2036.55,-1457.56 1134.72,-686.77 1933.05,-1134.78 2828.24,-1480.73 902,-348.58 1817.12,-560.05 3163.27,-764.59 472.21,-71.75 1135.06,-79.87 1810.4,-50.46 780.27,33.99 1584.37,117.73 2108.91,208.83 875.35,152.02 1947.41,455.11 2931.24,894.75 850.96,380.25 1648.35,870.2 2231.83,1468.26 410.65,420.9 849.49,924.69 1168.67,1507.22 382.04,697.26 588.42,1482.5 413.15,2345.07 -425.27,2093.01 -1222.58,2796.37 -2287.96,3736.23 -316.36,279.08 -663.79,585.59 -1041.88,994.94 -355.71,385.13 -603.39,653.81 -672.07,729.67 -183.5,202.69 -394.85,439.82 -653.14,734 -337.8,384.74 -650.73,709.88 -961.75,1033.04 -525.83,546.35 -1045.85,1086.67 -1488.37,1705.81l-6.36 8.7 1.47 1.06c-873.29,1205.73 -1876.16,2202.8 -2915.13,3175.78 200.77,-103.58 397.87,-206.62 590.32,-309.02 360.33,-191.73 681.24,-334.79 1002.81,-478.13 368.36,-164.19 737.74,-328.86 1084.99,-532.79 848.71,-498.43 1580.55,-808.18 2380.68,-1146.84 189.75,-80.3 384.87,-162.89 725.78,-312.48 578.38,-253.79 1181.75,-544.67 1786.31,-836.12 529.88,-255.44 1060.69,-511.34 1557.86,-736.08 763.18,-344.98 832.64,-376.78 895.19,-405.43 2608.66,-1194.85 3636.46,-1665.62 7077.12,-1831.49 439.05,-21.16 783.97,-27.6 1139.37,-10.31 363.32,17.69 716.07,58.55 1161.56,131.6 518.15,84.97 1358.27,270.97 2133.43,487.45 652.35,182.18 1274.34,389.47 1672.38,588.17 1120.48,559.33 2385.88,1284.25 3346.03,2281.22 1089.48,1131.26 1755.23,2551.43 1411.08,4362 -108.48,570.74 -455.77,1162.28 -887.17,1702.01 -515.91,645.46 -1166.48,1247.5 -1595.41,1589.04 -600.85,478.43 -1129.52,826.35 -1688.24,1128.5 -547.93,296.32 -1095.51,533.76 -1757.23,802.12 -676.48,274.35 -1361.38,615.39 -2047.23,956.89 -201.59,100.39 -404.78,201.54 -846.56,415.06 -767.47,370.94 -1550.13,806.61 -2314,1231.82 -245.3,136.54 -488.32,271.83 -816.67,451.68 -143.09,78.37 -654.08,364.98 -1161.77,649.72 -788.83,442.45 -1570.68,880.96 -2380.65,1294.42 -10.46,5.32 -20.96,10.45 -31.5,15.45 -247.55,133.43 -379.13,206.78 -506.89,278.01 -498.35,277.82 -957.54,533.82 -1594.7,809.15 -344.29,148.78 -674.45,292.8 -1149.59,519.4l-16.28 7.77c823.82,-185.76 1655.29,-367.8 2551.17,-508.66 593.3,-93.56 1159.31,-197.49 1733.44,-315.15 589.71,-120.84 1152.64,-248.31 1736.43,-388.26l1.1 -0.25 -1.1 -4.63c416.8,-98.98 966.66,-215.11 1579.32,-338.51 587.82,-118.39 1094.2,-214.39 1564.49,-301.89l10.32 -1.76 -0.55 -3.12c671,-119.45 1358.2,-223.54 2032.66,-325.69 168.6,-25.53 336.42,-50.96 502.8,-76.44 34.24,-5.14 68.35,-8.78 102.29,-11.08 975.82,-128.28 2162.09,-196.48 3299.93,-108.89 990.21,76.23 1963.55,269.77 2780.66,639.88 30.37,13.69 59.91,28.47 88.63,44.22 803.74,402.17 1621.2,924.02 2278.94,1603.43 747.41,772.03 1282.29,1724.9 1380.6,2902.13 5.78,70.13 5.55,139.37 -0.08,207.25 -14.72,1160.73 -454.38,2079.11 -1130.84,2825.35 -628.23,693.03 -1437.8,1201.14 -2272.68,1607.02 -720.33,350.19 -1601.67,645.75 -2363.14,901.1l-219.11 73.59zm-926.02 -2318.21l135 -45.07 219.11 -73.59c683.89,-229.33 1475.42,-494.78 2070.18,-783.92 589.91,-286.79 1140.3,-621.94 1510.96,-1030.84 283.87,-313.15 470.76,-693.54 485.53,-1167.08 -46.87,-529.56 -309.03,-979.76 -676.61,-1359.45 -435.86,-450.22 -1017.86,-816.35 -1604.4,-1109.89l-1.47 -0.64c-528.92,-239.57 -1215.2,-369.18 -1940.8,-425.04 -963.22,-74.15 -1962.4,-17.69 -2783.88,89.58 -20.36,4.1 -40.93,7.73 -61.7,10.85 -166.37,25.47 -334.2,50.91 -502.8,76.44 -662,100.26 -1336.49,202.43 -1974.08,315.93l-0.52 -2.97c-534.85,99.53 -1066.8,199.9 -1515.14,290.2 -426.36,85.87 -912.37,191.24 -1491.42,328.75l-1.09 -4.62c-646.52,154.98 -1240.65,290.14 -1813.48,407.52 -588.71,120.65 -1191.12,230.69 -1850.62,334.69 -873.76,137.38 -1764.84,338.97 -2654.15,540.15 -838.53,189.69 -1675.59,379.06 -2519.92,522.17l-0.27 -1.63 -9.5 1.63c-767.5,122.37 -1447,291.69 -2091.3,532.44 -616.9,230.51 -1212.51,530.1 -1833.92,920.45 -16.31,12.19 -32.98,24.08 -50.05,35.59 -74.07,50.03 -296.66,213.13 -594.36,431.27 -610.26,447.16 -1428.68,1046.82 -2200.32,1439.05 -348.75,529.3 -1049.09,717.57 -1621.68,416.08 -143.83,-75.73 -266.72,-175.62 -366.36,-292.02 -3.17,-3.65 -6.5,-6.99 -9.62,-10.72l0.37 -0.31c-314.77,-376.48 -389.65,-920.41 -146.86,-1381.52 135.51,-256.46 643.41,-762.46 773.83,-892.43l12.63 -12.59c715.18,-713.11 1479.66,-1465.88 2301.83,-2178.3 849.84,-736.4 1747.34,-1417.67 2689.57,-1948.11l0.46 0.81 19.07 -10.57c160.39,-86.21 335.19,-172.39 531.54,-262.45 171.04,-78.44 324.14,-144.37 467.09,-201.76 20.63,-9.46 41.61,-18.46 62.97,-26.9 461.9,-182.9 891.55,-461.6 1327.02,-744.09 195.44,-126.77 391.91,-254.21 600.93,-381.53 21.34,-14.45 43.18,-28.4 65.67,-41.69 440.44,-262.05 848.44,-474.86 1255.36,-668.93 292.82,-139.65 742.6,-334.85 1237.49,-548.7 495.13,-213.96 914.72,-447.88 1370.08,-701.73 196.84,-109.73 398.64,-222.25 530.8,-294.39 27.71,-16.92 56.28,-32.92 85.71,-47.89 800.64,-408.69 1543.38,-825.28 2292.77,-1245.6 268.82,-150.77 537.86,-301.69 1191.07,-659.48 202.62,-110.98 498.73,-275.82 797.13,-441.92 811,-451.45 1641.94,-913.99 2440.96,-1300.18 115.12,-55.64 465.6,-230.16 817.26,-405.28 722.95,-359.97 1444.9,-719.46 2223.01,-1035.03 595.49,-241.5 1076.55,-448.85 1513.09,-684.92 425.75,-230.24 837.43,-502.39 1317.14,-884.36 335.84,-267.42 833.52,-724.16 1204.79,-1188.66 201.85,-252.54 354.87,-479.43 379.35,-608.25 164.98,-867.95 -187.72,-1583.62 -756.78,-2174.5 -698.38,-725.16 -1731.66,-1308.79 -2662.43,-1773.42 -264.72,-132.15 -724.8,-282.98 -1223.16,-422.15 -688.62,-192.31 -1423.51,-355.67 -1869.77,-428.85 -353.42,-57.95 -620.81,-89.76 -878.34,-102.3 -265.41,-12.91 -542.13,-7.18 -905.01,10.31 -2962.78,142.84 -3866.19,556.63 -6159.14,1606.87 -495.33,226.88 -787.62,362.17 -904.95,415.21 -532.45,240.69 -1016.28,473.94 -1499.28,706.78 -610.32,294.23 -1219.47,587.9 -1874.19,875.18 -171.76,75.36 -467.17,200.39 -755.08,322.24 -718.72,304.2 -1376.09,582.44 -2087.72,1000.36 -475.36,279.16 -902.85,469.74 -1329.13,659.75 -292.55,130.4 -584.49,260.55 -846.55,399.99 -968.51,515.33 -1846.36,949.84 -2732.11,1388.24 -169.09,83.69 350.53,-173.53 -754.94,376.81l-0.99 -1.98 -3.89 1.98c-79.03,39.24 -155.55,77.03 -229.79,113.67 -776.3,383.22 -1269.46,626.69 -1881.64,1257.86l-0.15 -0.14 -9.61 9.91 -35.2 35.47c-206.59,208.24 -414.09,417.37 -664.49,637.36l-0.27 -0.31c-82.03,72.55 -165.06,145.79 -248.69,219.54 -539.06,475.46 -972.92,710.23 -1470.52,1208.62l-158.96 291.29c-1396.56,1398.75 -3881.42,5609.91 -5423.24,4545.32 -1410.5,-973.94 912.51,-3450.55 1728.19,-4483.45 244.22,-309.11 500.87,-606.36 766.31,-897.37 370.81,-406.55 704.97,-825 1040.71,-1245.44 236.32,-295.93 473.4,-592.82 739.43,-906.61l148.58 -175.26c778.9,-918.88 1565.62,-1846.96 2275.67,-2653.21l1.77 1.55c12.1,-13.72 24.48,-27.29 37.29,-40.61 170.61,-177.77 389.87,-415.07 609.5,-652.78 373.08,-403.79 747.42,-808.93 1159.83,-1206.15l14.3 -13.95c173.25,-164.67 575.49,-536.64 975.97,-906.97 1165.41,-1077.7 2308.93,-2135.17 3248.39,-3432.25l1.39 1.01c550.81,-769.08 1130.42,-1371.33 1716.47,-1980.26 305.65,-317.58 613.21,-637.14 883.63,-945.14 195.26,-222.39 423.41,-477.18 682.44,-763.3 373.85,-412.94 571.78,-630.05 681.83,-749.21 438.44,-474.7 851.39,-839 1227.42,-1170.72 709.12,-625.57 1239.82,-1093.73 1496.96,-2359.27 40.2,-197.85 -33.66,-426.4 -159.25,-655.61 -188.45,-343.95 -484.72,-679.5 -768.27,-970.12 -345.13,-353.75 -872.82,-668.6 -1460.35,-931.14 -774.45,-346.07 -1630.27,-586.73 -2335.54,-709.21 -454.19,-78.88 -1139.91,-150.93 -1796.41,-179.53 -515.48,-22.44 -1007.13,-18.42 -1331.88,30.92 -1177.66,178.93 -1944.72,350.99 -2635.93,618.11 -698.04,269.76 -1404.11,669.68 -2437.62,1295.19 -592.32,358.48 -1176.22,781.3 -1733.81,1242.7 -604.87,500.52 -1171.69,1038.86 -1680,1584.68 -239.05,256.7 -779.48,821.54 -1320.12,1386.58 -517.73,541.13 -1035.01,1081.76 -1723.37,1837.27 -396.7,435.39 -831.67,881.4 -1265.85,1326.59 -331.12,339.51 -661.76,678.54 -1011.52,1054.76 -475.02,510.95 -959.87,1012.61 -1461.24,1516.68 -493.73,496.39 -987.61,978.62 -1493.85,1464.04 -388.56,372.57 -819.89,750.06 -1251.68,1127.95 -533.75,467.14 -1068.34,934.99 -1521.63,1405.28l-0.14 -0.13 -4.75 5.01c-787.36,809.05 -1558.7,1422.55 -2391.3,2084.74l-120.37 95.76c-501.93,399.48 -1045.06,801.09 -1590.18,1204.18 -376.36,278.29 -753.53,557.2 -956.18,711.35 -439.33,334.2 -858.79,627.46 -1277.21,919.99 -464.68,324.88 -928.09,648.88 -1357.06,984.18 -15.16,13.45 -30.7,26.62 -46.66,39.45 -509.51,411.76 -918.4,691.66 -1398.56,1020.35 -274.77,188.12 95.2,-67.5 -192.22,130.18 -12.73,9.69 -25.61,19.25 -38.8,28.53 -41.73,29.36 -67.68,49.71 -100.79,75.67 -347.4,272.4 -1010.15,792.04 -1629.48,956.78 -907.59,241.43 -1633.75,16.66 -1921.27,-1064.23 -140.64,-528.82 -39.02,-1368.96 47.82,-2086.88 36.02,-297.77 69.02,-570.47 74.21,-680.95 44.94,-955.73 55.42,-1581.89 -31.66,-2141.92 -83.89,-539.49 -268.79,-1095.8 -613.68,-1922.77 -10.09,-19.97 -19.74,-40.3 -28.86,-61.02 -169.48,-384.66 -23.04,-60.06 -210.8,-493.79 -428.95,-990.83 -792.13,-1829.75 -1520.07,-2665.46l3.05 -2.65c-251.65,-282.63 -675.73,-685.6 -1122.89,-1069.68 -393.91,-338.34 -790.02,-646.78 -1072.42,-817.49 -966.9,-584.5 -1774.63,-1007.24 -2600.67,-1267.97 -808.84,-255.31 -1667.12,-366.7 -2759.19,-338.89l-115.2 2.92c-1331.01,33.6 -2975.85,75.15 -4137.94,459.18 -391.74,129.45 -716.97,271.36 -963.83,451.29 -220.64,160.82 -409.54,375.51 -569.88,674.06 -309.15,575.63 -437.06,1026.19 -426.09,1448.16 11.66,448.55 181.65,961.03 461.5,1609.76 206.47,478.61 363.79,942.57 518.63,1399.23 211.87,624.84 418.35,1233.8 751,1801.58 415.7,709.52 784.24,1339.73 955.29,1639.03 296.78,519.29 602.76,1066.98 931.61,1676.64 182.13,338.08 335.62,598.38 459.09,807.76 596.74,1011.99 671.82,1139.32 757.28,3051.55l-0.64 0.03 0.64 14.62c15.51,447.26 5.62,795.91 -33.7,1137.22 -38.47,333.78 -106.32,665.8 -207.35,1084.17 -192.61,797.64 -251.13,1403.78 -328.84,2208.94l-18.32 189.3c-65.02,668.4 -151.69,1232.14 -238.41,1796.34 -128.24,834.26 -256.66,1669.61 -277.19,2386.98 -25.26,882.99 133.06,1327.87 325,1867.14 133.45,374.97 279.15,784.34 412.22,1353.76l18.46 78.99c250.83,1073.73 466.28,1995.89 829.55,2994.4 546.4,1501.89 1440.43,3082.46 2500.93,4582.03 1198.65,1694.93 2591.18,3262.01 3928.59,4485.82 852.35,779.94 1818.33,1517.01 2858.66,2135.68 918.69,546.33 1883.52,991.31 2862.42,1278.6 1512.98,444.03 3086.04,700.76 4680.06,823.49 1619.83,124.72 3250.16,111.13 4855.75,14.33 1253.33,-75.56 2405.97,-234.57 3619.39,-401.94 259.34,-35.76 521.44,-71.93 787.82,-107.75 523.65,-70.43 1034.38,-177.27 1549.67,-285.04 396.55,-82.94 795.42,-166.38 1061.48,-213.96 1254.01,-224.23 2314.25,-488.61 3324.07,-846.02 1023.53,-362.26 2011.78,-821.34 3110.38,-1430.9 752.22,-417.37 1476.65,-775.4 2199.75,-1132.77 823.14,-406.8 1644.59,-812.78 2378.83,-1235.1 250.61,-144.14 514.92,-343.41 776.78,-540.82 269.33,-203.03 536.55,-404.48 843.56,-593.26 367.88,-226.19 650.1,-408.89 903.79,-587.17 304.75,-214.16 571.08,-415.05 867.85,-650.15 1281.97,-1015.53 2355.05,-1501.43 3702.94,-2111.74 103.26,-46.75 208.25,-94.3 315.13,-142.9 832.06,-378.36 1687.96,-708.72 2551.44,-1042.01 404.82,-156.24 811.55,-313.23 1292.89,-507.9 588.15,-237.86 1241.69,-489.57 1894.97,-741.16 530.28,-204.24 1060.52,-408.45 1486.02,-577.33 19.36,-8.92 39.05,-17.41 59.06,-25.43 476.59,-190.76 926.55,-368.47 1369.65,-536.85 493.64,-187.58 955.57,-357.07 1394.28,-508.26 577.46,-199 1086.31,-385.66 1594.45,-572.05 628.54,-230.55 1256.11,-460.75 1995.01,-707.51 355.65,-119.18 718.6,-244.7 1085.46,-373.51 191.49,-67.24 419.38,-150.93 1086.55,-389.13l0.57 1.58 4.31 -1.58c223.2,-79.36 463.6,-163.89 833.77,-288.78 294.96,-99.51 583.61,-192.66 866.41,-276.15 986.91,-291.38 1873.76,-587.47 2819.37,-903.16zm-35232.35 -10063.5c-1.55,-1.27 -574.55,705.15 0,0z"/>
  <path class="fil2" d="M9391.91 41859.17c-339.97,30.67 61.99,-5.88 -219.87,19.25 -1559.1,139.07 -2450.49,218.58 -3428.03,1462.23 -236.48,300.86 -405.82,669.49 -516.1,1063.54 -134.85,481.85 -184.2,995.05 -162.08,1476.57 48.35,1052.65 312.98,2056.6 718.2,3013.06 417.65,985.83 991.86,1932.94 1639.05,2837.74 457.71,639.92 904.39,1263.81 1326.26,1791.35 428.2,535.44 889.98,1052.48 1428.13,1546.22 91.75,84.18 180.67,166.13 267.52,246.17 624.46,575.51 1139.17,1049.86 1839.69,1550.33 623.47,445.42 1119.37,799.57 1580.25,1078.71 466.29,282.41 957.14,530.48 1610.5,791.34 865.31,345.49 1533.08,580.06 2199.82,717.74 657.14,135.7 1348.22,184.48 2276.55,162.57 588.76,-13.89 1126.42,-73.88 1587.35,-243.71 393.62,-145.03 746.1,-385.02 1048.48,-775.03 18.59,-23.98 34.32,-58.33 48.93,-99.39 38.67,-108.68 64.85,-223.26 91.7,-344.66l2431.64 537.1c-49.52,223.94 -97.85,435.38 -169.82,637.64 -96.05,269.88 -227.23,531.5 -429.79,792.75 -621.42,801.5 -1348.42,1295.67 -2161.76,1595.35 -746.05,274.89 -1542.97,370.25 -2388.13,390.19 -1127.88,26.62 -1987.76,-36.82 -2833.19,-211.41 -835.83,-172.6 -1622.32,-446.44 -2619.74,-844.68 -792.5,-316.41 -1397.75,-623.29 -1981.6,-976.9 -589.26,-356.9 -1097.68,-719.96 -1736.51,-1176.35 -843.76,-602.8 -1404.08,-1119.17 -2083.83,-1745.65 -86.85,-80.04 -175.77,-161.99 -267.52,-246.17 -615.18,-564.41 -1162.64,-1179.94 -1682.03,-1829.42 -525.72,-657.41 -965.05,-1270.88 -1414.16,-1898.77 -737.47,-1031.02 -1401.02,-2132.08 -1902.71,-3316.26 -514.14,-1213.55 -850.56,-2501.6 -913.52,-3872.44 -33.39,-726.93 42.78,-1507.69 249.98,-2248.05 196.96,-703.76 509.61,-1375.13 955.54,-1942.44 1638.2,-2084.15 2925.12,-2198.95 5176.09,-2399.73 140.8,-12.55 -275.51,24.56 210.11,-19.25l224.6 2480.46z"/>
  <path class="fil3" d="M15703.77 47123.27c-612.15,315.51 -1364.18,75.04 -1679.69,-537.11 -315.51,-612.15 -75.04,-1364.18 537.11,-1679.69 702.21,-364.16 1414.49,-798 2114.81,-1262.77 733.26,-486.65 1422.56,-983.48 2064.33,-1463.74 483.37,-361.71 964.47,-736.04 1405.77,-1130.61 417.41,-373.22 808.41,-774.1 1145.74,-1216.12 112.49,-147.4 210.58,-285.34 308.38,-422.88l35.42 -49.8c399.11,-560.91 1177.38,-692.08 1738.29,-292.97 560.91,399.11 692.08,1177.38 292.97,1738.29l-35.42 49.8c-120.5,169.46 -241.36,339.43 -357.22,491.24 -431.73,565.71 -932.79,1079.34 -1468,1557.9 -511.35,457.21 -1043.56,872.05 -1571.79,1267.33 -711.16,532.18 -1450.16,1066.26 -2181.51,1551.64 -764.31,507.24 -1553.04,986.61 -2349.19,1399.49z"/>
  <path class="fil3" d="M20124.74 50796.68c-666.08,172.58 -1345.97,-227.47 -1518.55,-893.55 -172.58,-666.08 227.47,-1345.97 893.55,-1518.55 1278.8,-330.23 4033.92,-2001.04 5667.62,-2991.79 822.39,-498.7 -618.36,366.31 494.01,-303.88l526.44 -317.47c1383.24,-834.58 2734.45,-1649.83 4199.97,-2457.54 420.66,-231.84 70.21,-37.88 0.77,1.4l0.26 0.48 61.88 -33.68c72.78,-39.77 143.16,-78.23 193.76,-114.22 560.91,-399.11 1339.18,-267.94 1738.29,292.97 399.11,560.91 267.94,1339.18 -292.97,1738.29 -156.76,111.48 -299.76,189.63 -447.68,270.46l-54.29 29.68c40.61,-22.1 487.28,-265.81 1.16,2.12 -1385.01,763.35 -2732.57,1576.39 -4112.09,2408.72l-526.44 317.47c-1411.83,850.61 -28.84,12.02 -494.01,294.1 -1753.12,1063.18 -4709.65,2856.13 -6331.68,3274.99zm10263.81 -8481.38c-13.79,7.8 -16.36,9.43 0.26,0.48l-0.26 -0.48zm1199.25 2183.99c-3.91,2.13 -3.66,1.99 0,0z"/>
  <path class="fil3" d="M23126.65 53771.4c-682.26,86.29 -1305.31,-396.84 -1391.6,-1079.1 -86.29,-682.26 396.84,-1305.31 1079.1,-1391.6 938.86,-119.75 1796.77,-279.11 2658.12,-479.34 840.44,-195.37 1695.3,-436.21 2641.91,-721.21 388.42,-116.94 801.2,-218.69 1211.38,-319.79 711.75,-175.43 1414.53,-348.66 2030.48,-647.83 115.58,-56.13 216.64,-106.14 317.58,-156.09 175.07,-86.63 350.07,-173.21 509.59,-248.92 622.93,-293.94 1366.22,-27.23 1660.16,595.7 293.94,622.93 27.23,1366.22 -595.7,1660.16 -170.05,80.7 -320.28,155.04 -470.53,229.38 -116.76,57.78 -233.52,115.56 -337.12,165.87 -847.65,411.7 -1677.89,616.35 -2518.76,823.61 -355.52,87.63 -713.31,175.83 -1094.18,290.49 -970.79,292.28 -1867.28,543.87 -2798.17,760.27 -909.97,211.54 -1843.52,383.36 -2902.26,518.4z"/>
 </g>
</svg>
