<?xml version="1.0" encoding="UTF-8"?>
<!DOCTYPE svg PUBLIC "-//W3C//DTD SVG 1.1//EN" "http://www.w3.org/Graphics/SVG/1.1/DTD/svg11.dtd">
<!-- Creator: CorelDRAW 2020 (64-Bit Wersja próbna) -->
<svg xmlns="http://www.w3.org/2000/svg" xml:space="preserve" width="880mm" height="659mm" version="1.1" style="shape-rendering:geometricPrecision; text-rendering:geometricPrecision; image-rendering:optimizeQuality; fill-rule:evenodd; clip-rule:evenodd"
viewBox="0 0 88000 65900"
 xmlns:xlink="http://www.w3.org/1999/xlink"
 xmlns:xodm="http://www.corel.com/coreldraw/odm/2003">
 <defs>
  <style type="text/css">
   <![CDATA[
    .str0 {stroke:#2B2A29;stroke-width:20;stroke-miterlimit:22.9256}
    .fil1 {fill:#FEFEFE}
    .fil0 {fill:#2B2A29;fill-rule:nonzero}
   ]]>
  </style>
 </defs>
 <g id="Warstwa_x0020_2">
  <metadata id="CorelCorpID_0Corel-Layer"/>
  <path class="fil0" d="M15836.63 46826c1582.42,1426.86 2811.76,2365.41 4772.06,3243.83 3557.06,1593.92 6361.14,2893.92 10223.83,3736.06 3620.62,789.37 7636.12,1283.42 11331.9,1639.31 3700.68,356.37 8258.8,618.94 11934.4,126.55 1500.03,-200.95 3218.78,-777.22 4662.11,-1264.19 2105.8,-710.49 4670.01,-1906.6 6621.34,-2985.48 1367.68,-756.18 2972.87,-1869.29 4207.33,-2835.59 1029.04,-805.51 2094.69,-1742.96 3090.3,-2600.42 2559.9,-2204.7 3306.89,-3078.44 5005.54,-5945.37 1234.71,-2083.9 2141.16,-3420.5 2848.33,-5770.29 731.84,-2431.75 1417.61,-5213.04 1452.46,-7757.95 14.49,-1058.47 -81.28,-2206.32 -127.03,-3275.6 -76.3,-1783.38 -197.01,-3746.69 -1098.48,-5331.73 -337.01,-592.56 -616.34,-1133.59 -931.12,-1733.64 -802.39,-1529.56 -1782.47,-1971.82 -3103.47,-2953.72 -1553.62,-1154.79 -1597.77,-885.57 -3431.24,-1283.43 -326.44,-70.84 -1220.86,-307.33 -1474.25,-42.37 -280.4,293.21 -115.02,1133.49 -144.9,1566.3 -33.16,480.28 -117.63,951.71 -152,1451.32 -138.94,2019.4 -638.82,4527.81 -1577.75,6323.69 -66.37,126.95 -656.06,1270.34 -705.84,1308.41 -269.96,-304.73 -188.81,-1577.1 -153.39,-1997.1 116.99,-1387.42 -4.41,-1706.52 -241.14,-3039.19 -267.28,-1504.63 -364.48,-3390.55 -448.09,-4932.03 -37.8,-697.1 -39.74,-1383.54 -74.21,-2073.1 -52.48,-1049.76 -674.79,-1865.05 -1380.42,-2600.32 -1212.38,-1263.31 -2592.6,-2175.53 -4254.81,-2720.96 -2556.67,-838.94 -5624.84,-1022.71 -8286.33,-677.68 -1554.41,201.51 -2359.81,181.84 -3901.31,750.66 -1319.1,486.76 -3089.86,1176.58 -3477.87,2678.78 -417.56,1616.6 809.3,3297.99 582.89,5179.21 -49.07,407.73 -52.7,584.9 -61.08,994.11 -15.86,774.49 -212.25,1955.59 -338.36,2727.52 -76.13,466.05 -870.58,5264.85 -1270.59,2140.45 -117.17,-915.23 -344.27,-1974.12 -515.55,-2894.21 -197.69,-1062.01 -382.56,-2108.35 -553.38,-3175.22 -166.02,-1036.84 -718.53,-2287.72 -1006.27,-3356.08 -112.71,-418.5 -552.13,-852.62 -845.11,-1171.04 -2702.74,-2937.46 -6270.33,-3794.37 -10146.63,-3605.16 -2771.52,135.28 -4568.81,833.1 -6708.35,2602.38 -2023.55,1673.36 -2387.51,2753.01 -1844.41,5304.13 294.89,1385.24 320.33,1743.88 226.17,3148.36 -149.72,2233.52 -39.07,3444.31 -1027.31,5566.06 -1575.58,3382.76 -3742.23,5043.87 -6695.02,7160.08 -553.63,396.78 -1180.71,805.7 -1711.64,1214.57 -355.32,273.63 -1063.38,1190.81 -1412.51,1219.37 -330.01,26.99 -371.95,-457.14 -292.5,-710.89 316,-1009.27 2207.58,-2219.11 3047.89,-2966.37 1373.99,-1221.86 2857.42,-3115.76 3810.33,-4690.82 342.35,-565.87 900.24,-3114.85 987.87,-3896.52 42.5,-379.17 248.26,-2202.38 -21.28,-2432.33 -298.15,-254.36 -1876.21,351.29 -2276.33,482.34 -2343.15,767.43 -4482.14,1256.55 -6722.49,2387.75 -2139.24,1080.15 -4497.68,2843.98 -5630.54,4995.08 -2701.61,5129.9 -261.37,11286.66 2774.88,15686.58 1708.55,2475.9 4230.82,5061.89 6463.37,7085.9zm52623.35 5381.37c-305.44,165.34 -651.16,413.58 -976.3,598.47 -1497.64,846.31 -3311.77,1681.88 -4898.86,2362.67 -959.11,411.42 -1906.74,770.76 -2882.98,1135.75 -403.69,150.94 -277.53,210.5 -176.91,668.83 204.56,931.7 224.39,1498.81 -135.21,2415.09 -853.93,2175.85 -3406.7,3113.24 -5459.39,3808.61 -4186.96,1418.37 -7907.71,1102.97 -12227.25,960.7 -4565.73,-150.38 -9619.87,-1056.43 -14071.16,-2100.85 -4048.15,-949.82 -9790.02,-2851.52 -12216.33,-6452.97 -2238.45,-3322.63 759.69,-5500.08 704.06,-5671.65 -2.09,-6.45 -1189.94,-975.91 -1307.79,-1078.22 -2004.05,-1739.88 -4273.14,-4065.8 -5948.28,-6127.33 -3541.89,-4358.89 -6646.92,-10949.57 -5317.58,-16663.43 898.75,-3863.13 3145.69,-6267.7 6469.26,-8276.33 3098.46,-1872.58 6005.6,-2461.71 9382.47,-3508.89 508.12,-157.56 1071.6,-377.5 1467.17,-745.42 110.89,-103.13 18.14,-328.85 -8.42,-491.46 -200.64,-1228.44 -147.37,-2072.04 151.21,-3293.1 592.87,-2424.58 2135.83,-3806.23 4117.07,-5176.14 4022.55,-2781.36 9586.55,-2651.39 14100.02,-1310.09 2009.93,597.3 3707.88,1266.04 5343.66,2621.25 309.22,256.18 172.6,63.56 408.77,-417.84 530.32,-1080.95 2212.63,-1688.69 3285.01,-2112.08 3417.58,-1349.27 6985.82,-1670.96 10627.7,-1346.86 2613.4,232.57 5428.81,987.02 7775.82,2164.95 1643.12,824.67 2967.13,2006.39 3752.77,3695.87 311.71,670.31 260.81,989.87 405.63,1649.66 31.24,142.33 244.39,56.47 403.86,38.49 2356.06,-265.69 4456.09,84.11 6616.11,1065.42 2140.99,972.66 3943.98,2378.61 5161.16,4411.49 2370.7,3959.42 2917.11,9133.97 2249.54,13636.91 -121.79,821.5 -243.06,1671.67 -376.45,2489.02 -209.68,1284.96 -994.37,3176.99 -1491.14,4424.47 -829.84,2083.87 -1626.81,3487.37 -2857.71,5351.1 -2147.72,3251.9 -3671.29,4982.17 -6683.78,7454.4 -1713.08,1405.85 -3433.71,2755.35 -5385.75,3819.51zm-12110.83 5495.79c-18.97,-241.62 -113.8,-153.6 -374.89,-114.39 -583.13,87.57 -1324.89,138.14 -1925.55,194.4 -5409.87,506.76 -10689.67,90.12 -16062.42,-593.16 -5003.63,-636.34 -11042.87,-1602.89 -15626.98,-3708.32 -654.56,-300.63 -1235.32,-625.68 -1910.14,-887.5 -634.79,-246.29 -1084.96,-522.27 -1670.88,-842.55 -608.52,-332.63 -612.02,356.87 -631.26,787.41 -19.36,433.48 -59.72,1708.95 171.81,2056.52 417.12,626.19 1195.98,1474.44 1803.42,1935.79 837.8,636.32 2384.13,1539 3346.62,1963.68 1779.58,785.19 4419.2,1395.74 6346.45,1802.89 4283.22,904.88 8330.05,1555.3 12715.95,1691.99 4772.43,148.73 7670.01,167.37 12188.91,-1727.94 1274.72,-534.64 1642.94,-1190.64 1628.96,-2558.82zm-22028.58 -8912.25c-314.74,1747.4 -1599.16,3238.8 -3343.17,1856 -347.81,-275.78 -302.73,-259.48 -203.42,-691.39 46.2,-200.96 99.76,-399.21 149.25,-599.17 643.92,-2905.66 926.31,-5618.46 1009.69,-8588.87 17.59,-626.55 507.53,-1094.93 1042.34,-1352.4 641.4,-308.78 1181,-118.42 1754.37,245.4 412.71,261.88 755.69,575.09 668.74,1096.25 -324.09,1942.4 -308.25,3987.64 -657.46,5897.92 -125.55,686.82 -307.38,1335.31 -406.01,2034.64l-14.33 101.62zm9180.83 2363.37c-485.81,970.51 -1726.51,1027.98 -2618.59,663.94 -598.95,-244.42 -1135.22,-753.42 -617.32,-1382.63 906.56,-1159.25 3410.77,-8960.3 4146.2,-11052.13 190.75,-542.56 898.47,-2612.04 1173.88,-2947.04 719.44,-875.07 2874.59,-638.01 3005.74,527.27 59.94,532.58 -478.48,2355.02 -651.84,2960.07 -607.52,2120.25 -1367.86,4259.09 -2225.28,6291.31 -363.74,859.34 -728.8,1636.47 -1180.33,2452.99 -194.16,351.13 -475,1106.31 -641.31,1512.13 -132.94,324.41 -263.53,647.66 -391.15,974.09zm7485.5 915.99c-664.21,315.51 -1404.22,187.3 -2039.33,-145.95 -615.11,-322.76 -568.95,-819.13 -274.48,-1365.24 220.65,-409.19 554.07,-768.28 971.31,-978.19 693.17,-348.72 3748.23,-4802.98 4385.55,-5834.27 365.95,-592.16 772.49,-1273.91 1039.35,-1915.25 277.16,-666.11 1122.13,-909.33 1784.91,-950.84 577.6,-36.19 1111.62,166.55 1505.05,600.45 504.03,555.88 123.95,1048.84 -179.93,1582.63 -706.57,1241.14 -1657.37,2622.09 -2483.06,3802.87 -1084.36,1550.68 -3080.85,4278.3 -4709.37,5203.79z"/>
  <path class="fil1 str0" d="M45585.57 36436.42c719.44,-875.07 2874.59,-638.01 3005.74,527.27 59.94,532.57 -478.48,2355.02 -651.83,2960.07 -607.53,2120.25 -1367.87,4259.09 -2225.29,6291.31 -363.74,859.34 -728.8,1636.48 -1180.33,2452.98 -194.16,351.14 -475,1106.32 -641.31,1512.14 -132.94,324.41 -263.53,647.66 -391.14,974.09 -485.82,970.51 -1726.52,1027.98 -2618.59,663.94 -598.96,-244.42 -1135.22,-753.42 -617.33,-1382.63 906.56,-1159.25 3410.77,-8960.3 4146.21,-11052.13 190.74,-542.56 898.46,-2612.05 1173.87,-2947.04zm-10855.94 3224.06c412.72,261.88 755.7,575.09 668.74,1096.25 -324.09,1942.4 -308.25,3987.63 -657.46,5897.92 -125.54,686.82 -307.38,1335.31 -406.01,2034.64l-14.33 101.62c-314.74,1747.4 -1599.16,3238.8 -3343.17,1856 -347.81,-275.78 -302.73,-259.49 -203.42,-691.39 46.2,-200.96 99.76,-399.21 149.25,-599.17 643.92,-2905.66 926.31,-5618.46 1009.69,-8588.87 17.59,-626.55 507.53,-1094.93 1042.34,-1352.4 641.4,-308.79 1181,-118.42 1754.37,245.4zm-18893 7165.51c1582.42,1426.87 2811.76,2365.42 4772.07,3243.84 3557.05,1593.92 6361.14,2893.92 10223.82,3736.06 3620.62,789.37 7636.12,1283.42 11331.9,1639.31 3700.68,356.37 8258.8,618.93 11934.4,126.55 1500.03,-200.95 3218.78,-777.22 4662.12,-1264.18 2105.8,-710.5 4670.01,-1906.61 6621.33,-2985.49 1367.68,-756.18 2972.87,-1869.29 4207.33,-2835.59 1029.04,-805.51 2094.7,-1742.96 3090.3,-2600.42 2559.91,-2204.7 3306.89,-3078.44 5005.54,-5945.37 1234.71,-2083.9 2141.16,-3420.5 2848.33,-5770.29 731.84,-2431.75 1417.61,-5213.04 1452.46,-7757.95 14.49,-1058.48 -81.27,-2206.32 -127.02,-3275.6 -76.31,-1783.38 -197.02,-3746.69 -1098.49,-5331.73 -337,-592.56 -616.34,-1133.59 -931.12,-1733.64 -802.39,-1529.56 -1782.46,-1971.83 -3103.46,-2953.72 -1553.63,-1154.79 -1597.77,-885.57 -3431.25,-1283.43 -326.44,-70.84 -1220.85,-307.33 -1474.25,-42.37 -280.4,293.2 -115.02,1133.48 -144.9,1566.3 -33.16,480.27 -117.63,951.71 -152,1451.32 -138.94,2019.4 -638.82,4527.81 -1577.74,6323.69 -66.38,126.95 -656.07,1270.34 -705.85,1308.41 -269.96,-304.73 -188.8,-1577.11 -153.38,-1997.1 116.98,-1387.42 -4.42,-1706.52 -241.15,-3039.19 -267.28,-1504.63 -364.47,-3390.56 -448.09,-4932.03 -37.8,-697.1 -39.74,-1383.55 -74.21,-2073.1 -52.47,-1049.76 -674.79,-1865.05 -1380.41,-2600.32 -1212.39,-1263.31 -2592.61,-2175.53 -4254.82,-2720.96 -2556.67,-838.94 -5624.84,-1022.71 -8286.33,-677.68 -1554.4,201.51 -2359.81,181.83 -3901.31,750.66 -1319.1,486.76 -3089.86,1176.58 -3477.86,2678.78 -417.56,1616.6 809.29,3297.99 582.88,5179.21 -49.07,407.72 -52.69,584.9 -61.08,994.11 -15.86,774.49 -212.25,1955.58 -338.36,2727.52 -76.13,466.05 -870.58,5264.85 -1270.59,2140.45 -117.16,-915.24 -344.27,-1974.12 -515.55,-2894.21 -197.68,-1062.01 -382.56,-2108.35 -553.38,-3175.22 -166.02,-1036.84 -718.53,-2287.73 -1006.27,-3356.08 -112.71,-418.5 -552.13,-852.62 -845.11,-1171.05 -2702.74,-2937.45 -6270.33,-3794.36 -10146.63,-3605.16 -2771.52,135.29 -4568.81,833.1 -6708.35,2602.39 -2023.55,1673.36 -2387.51,2753 -1844.41,5304.13 294.89,1385.24 320.33,1743.88 226.17,3148.36 -149.72,2233.52 -39.07,3444.31 -1027.31,5566.06 -1575.58,3382.76 -3742.23,5043.87 -6695.02,7160.08 -553.63,396.78 -1180.71,805.69 -1711.64,1214.57 -355.32,273.63 -1063.38,1190.81 -1412.51,1219.37 -330.01,26.99 -371.95,-457.14 -292.5,-710.89 316,-1009.28 2207.58,-2219.11 3047.89,-2966.37 1373.99,-1221.87 2857.42,-3115.77 3810.32,-4690.82 342.36,-565.87 900.25,-3114.85 987.88,-3896.52 42.5,-379.17 248.26,-2202.38 -21.28,-2432.33 -298.15,-254.36 -1876.2,351.29 -2276.33,482.34 -2343.15,767.42 -4482.14,1256.55 -6722.48,2387.75 -2139.25,1080.15 -4497.69,2843.98 -5630.56,4995.08 -2701.6,5129.9 -261.36,11286.66 2774.89,15686.58 1708.55,2475.9 4230.82,5061.89 6463.37,7085.89zm39232.67 -4994.62c277.17,-666.11 1122.13,-909.33 1784.91,-950.84 577.6,-36.19 1111.62,166.55 1505.06,600.45 504.02,555.88 123.94,1048.83 -179.94,1582.63 -706.57,1241.14 -1657.37,2622.08 -2483.06,3802.87 -1084.36,1550.68 -3080.85,4278.3 -4709.37,5203.79 -664.21,315.51 -1404.22,187.29 -2039.33,-145.95 -615.11,-322.76 -568.95,-819.13 -274.48,-1365.23 220.66,-409.2 554.08,-768.29 971.31,-978.21 693.17,-348.71 3748.23,-4802.97 4385.55,-5834.26 365.95,-592.16 772.49,-1273.91 1039.35,-1915.25z"/>
  <path class="fil1 str0" d="M45585.57 36436.42c719.44,-875.07 2874.59,-638.01 3005.74,527.27 59.94,532.57 -478.48,2355.02 -651.83,2960.07 -607.53,2120.25 -1367.87,4259.09 -2225.29,6291.31 -363.74,859.34 -728.8,1636.48 -1180.33,2452.98 -194.16,351.14 -475,1106.32 -641.31,1512.14 -132.94,324.41 -263.53,647.66 -391.14,974.09 -485.82,970.51 -1726.52,1027.98 -2618.59,663.94 -598.96,-244.42 -1135.22,-753.42 -617.33,-1382.63 906.56,-1159.25 3410.77,-8960.3 4146.21,-11052.13 190.74,-542.56 898.46,-2612.05 1173.87,-2947.04zm-10855.94 3224.06c412.72,261.88 755.7,575.09 668.74,1096.25 -324.09,1942.4 -308.25,3987.63 -657.46,5897.92 -125.54,686.82 -307.38,1335.31 -406.01,2034.64l-14.33 101.62c-314.74,1747.4 -1599.16,3238.8 -3343.17,1856 -347.81,-275.78 -302.73,-259.49 -203.42,-691.39 46.2,-200.96 99.76,-399.21 149.25,-599.17 643.92,-2905.66 926.31,-5618.46 1009.69,-8588.87 17.59,-626.55 507.53,-1094.93 1042.34,-1352.4 641.4,-308.79 1181,-118.42 1754.37,245.4zm-18893 7165.51c1582.42,1426.87 2811.76,2365.42 4772.07,3243.84 3557.05,1593.92 6361.14,2893.92 10223.82,3736.06 3620.62,789.37 7636.12,1283.42 11331.9,1639.31 3700.68,356.37 8258.8,618.93 11934.4,126.55 1500.03,-200.95 3218.78,-777.22 4662.12,-1264.18 2105.8,-710.5 4670.01,-1906.61 6621.33,-2985.49 1367.68,-756.18 2972.87,-1869.29 4207.33,-2835.59 1029.04,-805.51 2094.7,-1742.96 3090.3,-2600.42 2559.91,-2204.7 3306.89,-3078.44 5005.54,-5945.37 1234.71,-2083.9 2141.16,-3420.5 2848.33,-5770.29 731.84,-2431.75 1417.61,-5213.04 1452.46,-7757.95 14.49,-1058.48 -81.27,-2206.32 -127.02,-3275.6 -76.31,-1783.38 -197.02,-3746.69 -1098.49,-5331.73 -337,-592.56 -616.34,-1133.59 -931.12,-1733.64 -802.39,-1529.56 -1782.46,-1971.83 -3103.46,-2953.72 -1553.63,-1154.79 -1597.77,-885.57 -3431.25,-1283.43 -326.44,-70.84 -1220.85,-307.33 -1474.25,-42.37 -280.4,293.2 -115.02,1133.48 -144.9,1566.3 -33.16,480.27 -117.63,951.71 -152,1451.32 -138.94,2019.4 -638.82,4527.81 -1577.74,6323.69 -66.38,126.95 -656.07,1270.34 -705.85,1308.41 -269.96,-304.73 -188.8,-1577.11 -153.38,-1997.1 116.98,-1387.42 -4.42,-1706.52 -241.15,-3039.19 -267.28,-1504.63 -364.47,-3390.56 -448.09,-4932.03 -37.8,-697.1 -39.74,-1383.55 -74.21,-2073.1 -52.47,-1049.76 -674.79,-1865.05 -1380.41,-2600.32 -1212.39,-1263.31 -2592.61,-2175.53 -4254.82,-2720.96 -2556.67,-838.94 -5624.84,-1022.71 -8286.33,-677.68 -1554.4,201.51 -2359.81,181.83 -3901.31,750.66 -1319.1,486.76 -3089.86,1176.58 -3477.86,2678.78 -417.56,1616.6 809.29,3297.99 582.88,5179.21 -49.07,407.72 -52.69,584.9 -61.08,994.11 -15.86,774.49 -212.25,1955.58 -338.36,2727.52 -76.13,466.05 -870.58,5264.85 -1270.59,2140.45 -117.16,-915.24 -344.27,-1974.12 -515.55,-2894.21 -197.68,-1062.01 -382.56,-2108.35 -553.38,-3175.22 -166.02,-1036.84 -718.53,-2287.73 -1006.27,-3356.08 -112.71,-418.5 -552.13,-852.62 -845.11,-1171.05 -2702.74,-2937.45 -6270.33,-3794.36 -10146.63,-3605.16 -2771.52,135.29 -4568.81,833.1 -6708.35,2602.39 -2023.55,1673.36 -2387.51,2753 -1844.41,5304.13 294.89,1385.24 320.33,1743.88 226.17,3148.36 -149.72,2233.52 -39.07,3444.31 -1027.31,5566.06 -1575.58,3382.76 -3742.23,5043.87 -6695.02,7160.08 -553.63,396.78 -1180.71,805.69 -1711.64,1214.57 -355.32,273.63 -1063.38,1190.81 -1412.51,1219.37 -330.01,26.99 -371.95,-457.14 -292.5,-710.89 316,-1009.28 2207.58,-2219.11 3047.89,-2966.37 1373.99,-1221.87 2857.42,-3115.77 3810.32,-4690.82 342.36,-565.87 900.25,-3114.85 987.88,-3896.52 42.5,-379.17 248.26,-2202.38 -21.28,-2432.33 -298.15,-254.36 -1876.2,351.29 -2276.33,482.34 -2343.15,767.42 -4482.14,1256.55 -6722.48,2387.75 -2139.25,1080.15 -4497.69,2843.98 -5630.56,4995.08 -2701.6,5129.9 -261.36,11286.66 2774.89,15686.58 1708.55,2475.9 4230.82,5061.89 6463.37,7085.89zm39232.67 -4994.62c277.17,-666.11 1122.13,-909.33 1784.91,-950.84 577.6,-36.19 1111.62,166.55 1505.06,600.45 504.02,555.88 123.94,1048.83 -179.94,1582.63 -706.57,1241.14 -1657.37,2622.08 -2483.06,3802.87 -1084.36,1550.68 -3080.85,4278.3 -4709.37,5203.79 -664.21,315.51 -1404.22,187.29 -2039.33,-145.95 -615.11,-322.76 -568.95,-819.13 -274.48,-1365.23 220.66,-409.2 554.08,-768.29 971.31,-978.21 693.17,-348.71 3748.23,-4802.97 4385.55,-5834.26 365.95,-592.16 772.49,-1273.91 1039.35,-1915.25z"/>
  <path class="fil1 str0" d="M54048.72 57783.16c-5409.88,506.77 -10689.68,90.13 -16062.43,-593.15 -5003.63,-636.34 -11042.87,-1602.89 -15626.98,-3708.32 -654.56,-300.63 -1235.32,-625.68 -1910.14,-887.5 -634.79,-246.29 -1084.95,-522.27 -1670.87,-842.56 -608.53,-332.62 -612.03,356.88 -631.27,787.42 -19.36,433.48 -59.72,1708.95 171.81,2056.52 417.12,626.19 1195.97,1474.44 1803.42,1935.79 837.8,636.32 2384.14,1539 3346.62,1963.68 1779.58,785.19 4419.2,1395.74 6346.45,1802.89 4283.22,904.88 8330.05,1555.29 12715.95,1691.99 4772.43,148.73 7670.02,167.37 12188.91,-1727.94 1274.72,-534.64 1642.95,-1190.64 1628.96,-2558.82 -18.97,-241.62 -113.79,-153.6 -374.89,-114.39 -583.13,87.57 -1324.89,138.14 -1925.54,194.39z"/>
  <path class="fil1 str0" d="M49644.4 49580.88c693.17,-348.71 3748.23,-4802.97 4385.55,-5834.26 365.95,-592.16 772.49,-1273.91 1039.35,-1915.25 277.17,-666.11 1122.13,-909.33 1784.91,-950.84 577.6,-36.19 1111.62,166.55 1505.06,600.45 504.02,555.88 123.94,1048.83 -179.94,1582.63 -706.57,1241.14 -1657.37,2622.08 -2483.06,3802.87 -1084.36,1550.68 -3080.85,4278.3 -4709.37,5203.79 -664.21,315.51 -1404.22,187.29 -2039.33,-145.95 -615.11,-322.76 -568.95,-819.13 -274.48,-1365.23 220.66,-409.2 554.08,-768.29 971.31,-978.21zm-7479.98 5864.32c3700.68,356.37 8258.8,618.93 11934.4,126.55 1500.03,-200.95 3218.78,-777.22 4662.12,-1264.18 2105.8,-710.5 4670.01,-1906.61 6621.33,-2985.49 1367.68,-756.18 2972.87,-1869.29 4207.33,-2835.59 1029.04,-805.51 2094.7,-1742.96 3090.3,-2600.42 2559.91,-2204.7 3306.89,-3078.44 5005.54,-5945.37 1234.71,-2083.9 2141.16,-3420.5 2848.33,-5770.29 731.84,-2431.75 1417.61,-5213.04 1452.46,-7757.95 14.49,-1058.48 -81.27,-2206.32 -127.02,-3275.6 -76.31,-1783.38 -197.02,-3746.69 -1098.49,-5331.73 -337,-592.56 -616.34,-1133.59 -931.12,-1733.64 -802.39,-1529.56 -1782.46,-1971.83 -3103.46,-2953.72 -1553.63,-1154.79 -1597.77,-885.57 -3431.25,-1283.43 -326.44,-70.84 -1220.85,-307.33 -1474.25,-42.37 -280.4,293.2 -115.02,1133.48 -144.9,1566.3 -33.16,480.27 -117.63,951.71 -152,1451.32 -138.94,2019.4 -638.82,4527.81 -1577.74,6323.69 -66.38,126.95 -656.07,1270.34 -705.85,1308.41 -269.96,-304.73 -188.8,-1577.11 -153.38,-1997.1 116.98,-1387.42 -4.42,-1706.52 -241.15,-3039.19 -267.28,-1504.63 -364.47,-3390.56 -448.09,-4932.03 -37.8,-697.1 -39.74,-1383.55 -74.21,-2073.1 -52.47,-1049.76 -674.79,-1865.05 -1380.41,-2600.32 -1212.39,-1263.31 -2592.61,-2175.53 -4254.82,-2720.96 -2556.67,-838.94 -5624.84,-1022.71 -8286.33,-677.68 -1554.4,201.51 -2359.81,181.83 -3901.31,750.66 -1319.1,486.76 -3089.86,1176.58 -3477.86,2678.78 -417.56,1616.6 809.29,3297.99 582.88,5179.21 -49.07,407.72 -52.69,584.9 -61.08,994.11 -15.86,774.49 -212.25,1955.58 -338.36,2727.52 -76.13,466.05 -870.58,5264.85 -1270.59,2140.45 -117.16,-915.24 -344.27,-1974.12 -515.55,-2894.21 -197.68,-1062.01 -382.56,-2108.35 -553.38,-3175.22 -166.02,-1036.84 -718.53,-2287.73 -1006.27,-3356.08 -112.71,-418.5 -552.13,-852.62 -845.11,-1171.05 -2702.74,-2937.45 -6270.33,-3794.36 -10146.63,-3605.16 -2771.52,135.29 -4568.81,833.1 -6708.35,2602.39 -2023.55,1673.36 -2387.51,2753 -1844.41,5304.13 294.89,1385.24 320.33,1743.88 226.17,3148.36 -149.72,2233.52 -39.07,3444.31 -1027.31,5566.06 -1575.58,3382.76 -3742.23,5043.87 -6695.02,7160.08 -553.63,396.78 -1180.71,805.69 -1711.64,1214.57 -355.32,273.63 -1063.38,1190.81 -1412.51,1219.37 -330.01,26.99 -371.95,-457.14 -292.5,-710.89 316,-1009.28 2207.58,-2219.11 3047.89,-2966.37 1373.99,-1221.87 2857.42,-3115.77 3810.32,-4690.82 342.36,-565.87 900.25,-3114.85 987.88,-3896.52 42.5,-379.17 248.26,-2202.38 -21.28,-2432.33 -298.15,-254.36 -1876.2,351.29 -2276.33,482.34 -2343.15,767.42 -4482.14,1256.55 -6722.48,2387.75 -2139.25,1080.15 -4497.69,2843.98 -5630.56,4995.08 -2701.6,5129.9 -261.36,11286.66 2774.89,15686.58 1708.55,2475.9 4230.82,5061.89 6463.37,7085.89 1582.42,1426.87 2811.76,2365.42 4772.07,3243.84 3557.05,1593.92 6361.14,2893.92 10223.82,3736.06 3620.62,789.37 7636.12,1283.42 11331.9,1639.31zm3421.15 -19008.78c719.44,-875.07 2874.59,-638.01 3005.74,527.27 59.94,532.57 -478.48,2355.02 -651.83,2960.07 -607.53,2120.25 -1367.87,4259.09 -2225.29,6291.31 -363.74,859.34 -728.8,1636.48 -1180.33,2452.98 -194.16,351.14 -475,1106.32 -641.31,1512.14 -132.94,324.41 -263.53,647.66 -391.14,974.09 -485.82,970.51 -1726.52,1027.98 -2618.59,663.94 -598.96,-244.42 -1135.22,-753.42 -617.33,-1382.63 906.56,-1159.25 3410.77,-8960.3 4146.21,-11052.13 190.74,-542.56 898.46,-2612.05 1173.87,-2947.04zm-10855.94 3224.06c412.72,261.88 755.7,575.09 668.74,1096.25 -324.09,1942.4 -308.25,3987.63 -657.46,5897.92 -125.54,686.82 -307.38,1335.31 -406.01,2034.64l-14.33 101.62c-314.74,1747.4 -1599.16,3238.8 -3343.17,1856 -347.81,-275.78 -302.73,-259.49 -203.42,-691.39 46.2,-200.96 99.76,-399.21 149.25,-599.17 643.92,-2905.66 926.31,-5618.46 1009.69,-8588.87 17.59,-626.55 507.53,-1094.93 1042.34,-1352.4 641.4,-308.79 1181,-118.42 1754.37,245.4z"/>
 </g>
</svg>
