<?xml version="1.0" encoding="UTF-8"?>
<!DOCTYPE svg PUBLIC "-//W3C//DTD SVG 1.1//EN" "http://www.w3.org/Graphics/SVG/1.1/DTD/svg11.dtd">
<!-- Creator: CorelDRAW 2020 (64-Bit Wersja próbna) -->
<svg xmlns="http://www.w3.org/2000/svg" xml:space="preserve" width="880mm" height="659mm" version="1.1" style="shape-rendering:geometricPrecision; text-rendering:geometricPrecision; image-rendering:optimizeQuality; fill-rule:evenodd; clip-rule:evenodd"
viewBox="0 0 88000 65900"
 xmlns:xlink="http://www.w3.org/1999/xlink"
 xmlns:xodm="http://www.corel.com/coreldraw/odm/2003">
 <defs>
  <style type="text/css">
   <![CDATA[
    .str0 {stroke:#2B2A29;stroke-width:20;stroke-miterlimit:22.9256}
    .fil1 {fill:#FEFEFE}
    .fil0 {fill:#2B2A29;fill-rule:nonzero}
   ]]>
  </style>
 </defs>
 <g id="Warstwa_x0020_2">
  <metadata id="CorelCorpID_0Corel-Layer"/>
  <path class="fil0" d="M48402.59 33143.5c1663.81,-162.88 3703.27,-228.07 5385.81,-250.25 2378.63,-31.36 4050.21,120.81 6391.95,504.53 2785.57,456.45 5834.99,850.11 8642.64,1131.75 1292.9,129.69 2478.45,132.4 3800.9,301.37 2153.38,275.13 6353.95,1320.11 8203.33,90.25 1417.73,-942.79 1319.18,-3079.35 1124,-4575.24 -267.54,-2050.6 -1353.14,-3559.53 -2922.02,-4852.73 -3511.03,-2894.07 -11914.93,-3076.59 -16422.32,-3585.22 -2606.41,-294.11 -5495.49,-567.68 -8064.86,-1034.91 -880.43,-160.1 -1251.92,-241.76 -1641.67,-1167.09 -503.71,-1195.89 -179.06,-2335.58 -394.61,-3560.23 -491.69,-2793.59 -1447.59,-4782.3 -3587.03,-6693.58 -4642.73,-4147.63 -13748.32,-3979.63 -19395.68,-2330.89 -6181.87,1804.8 -10073.1,3881.08 -13495.77,9561.79 -848.26,1407.89 -1700.77,2825.95 -2302.41,4358.87 -564.84,1439.18 -2078.76,5394.98 -2100.02,6828.82 -18.14,1222.52 388.06,4206.46 211.54,5004.94 -130.87,591.95 -698.47,450.1 -1153.95,337.81 -1723.77,-424.99 -1654.28,-3996.16 -1593.99,-5383.96 222.44,-5120.86 3410.53,-10800.88 6485.97,-14782.99 2101.42,-2720.93 6663.51,-5739.56 9875.5,-6930.99 3160.73,-1172.42 7373.62,-1967.45 10751.62,-2058.12 5598.23,-150.27 11641.19,848.57 15540.84,5261.59 2066.25,2338.27 2844.46,5912.93 3106,8945.73 47.54,551.24 162.66,388.71 823.9,491.64 3401.42,529.46 6547.42,1008.34 9993.01,1304.06 5977.28,513.01 13049.26,881.4 17021.91,6084.35 1463.17,1916.3 1955.99,5883.36 971.3,8065.68 -753.66,1670.28 -1553.49,2805 -3394.53,3347.16 -826.14,243.29 -2001.91,353.11 -2839.32,177.88 -3154.82,-660.15 -6560.25,-977.3 -9771.65,-1419 -1284.67,-176.69 -2393.37,-111.02 -3642,-242.29 -1213.47,-127.57 -1266.62,-184.39 -2448.13,1.69 -3708.22,584.05 -3981.74,-570.52 -7111.54,-1254.71 -1929.79,-421.86 -4819.9,-911.23 -6766.19,-920.69 -2299.27,-11.19 -3391.85,-141.3 -135.65,-643.05 288.78,-44.5 563.19,-80.91 853.12,-113.97z"/>
  <path class="fil0" d="M39498.39 45725.93c521.53,-198.94 4450.03,234.63 5349.03,392.47 2658.69,466.78 5283.53,1163.74 7793.77,2157.34 1998.82,791.17 3642.35,1490.25 5563.63,2478.87 1364.11,701.92 2745.83,1368.45 4116.14,2082.26 2331.39,1214.44 4800.58,2496.95 7065.32,3815.75 543.11,316.26 678.83,450.98 1285.77,710.21 816.75,348.85 1994.17,943.69 2891.14,782.74 2848.08,-511.06 3330.86,-2397.06 3503.6,-4954.84 89.91,-1331.21 -804.04,-4760.61 -1549.49,-5828.27 -1435.75,-2056.32 -4842.38,-3605.74 -7019.13,-4941.43 -2091.69,-1283.49 -4133.39,-2696.76 -6213.68,-3962.01 -1081.52,-657.79 -6205.34,-3220.63 -4705.22,-4928.35 366.02,-416.67 1280.07,-294.19 1733.3,-59.09 158.49,82.22 967.88,1006.98 1214.29,1232.77 2318.06,2124.12 6592.96,4430.01 9393.01,6066.6 740.9,433.04 1462.86,764.65 2225.8,1237.14 2225.62,1378.3 5492.09,3770.98 6377.38,6320.68 502.11,1446.1 1084.91,3739.56 912.26,5278.52 -358,3191.17 -2242.38,6465.41 -5796.21,6598.06 -3502.21,130.73 -5537.28,-2056.56 -8460.87,-3605.22 -2652.26,-1404.93 -5386.27,-2600.33 -8040.36,-3959.82 -1604.69,-821.95 -3440.23,-1651.33 -5096.52,-2382.18 -1739.63,-767.63 -3634.34,-1229.55 -5441.07,-1935.88 -848.32,-331.65 -1565.39,-602.23 -2428.53,-894.77 -1139.42,-386.17 -2256.01,-832.55 -3412.45,-1222.57 -110.85,-37.38 -1269.97,-392.23 -1260.91,-478.98z"/>
  <path class="fil0" d="M18015.62 42133.46c2824.77,3111.81 5424.87,5332.75 9167.3,7287.37 1288.91,673.18 2071.39,1191.89 3495.7,1668.84 2188.41,732.81 4513.11,836.1 6804.87,786.61 2516.43,-54.34 10311.22,-2232.1 12298.92,-3486.94 391.78,-247.33 330.23,-109.81 835.61,145.84 416.31,210.59 1141.31,543.45 1596.27,615.26 -276.27,1330.39 -3267.59,2345.32 -4410.14,2894.42 -1327.84,638.16 -2159.88,1079.85 -3600.83,1530.98 -3765.62,1178.94 -8855.09,1563.83 -12635.97,260.97 -626.42,-215.86 -1257.69,-344.63 -1926.43,-591.78 -2032.14,-751.03 -4074.44,-2077.75 -6001.92,-3119.38 -3607.96,-1949.77 -8470.28,-6540.8 -10585.12,-10067.19 -1271.27,-2119.77 -2427.82,-4906.63 -3303.38,-7233.62 -249.39,-662.79 -662.46,-2223.63 53.48,-2720.36 808.15,-560.71 1928.62,1429.18 2181.62,1979.77 760.93,1655.93 1557.75,3523.19 2539.32,5057.28 681.01,1064.34 1062.71,1964.99 1852.1,3024.84 511.84,687.21 1065.86,1330.62 1638.6,1967.09z"/>
  <path class="fil0" d="M8570.34 32418.15c-5258.32,-1162.82 -4759.13,-6950.77 -3759.57,-11031.48 852.51,-3480.38 2290.79,-6415.62 4334.7,-9340.52 1502.09,-2149.53 1682.55,-2794.41 3943.6,-4437.5 1734.47,-1260.41 3908.73,-1944.32 6049.55,-1516.66 3952.89,789.65 5341.22,4938.39 1476.63,3216.32 -1681.86,-749.44 -2136.35,-950.41 -4046.13,-831.23 -1382.16,86.25 -2042.58,846.55 -3006.88,1763.39 -2421.6,2302.42 -4194.2,5727.4 -5424.79,8801.51 -787.37,1966.93 -1303.83,3602.11 -1434.6,5721.98 -142.06,2303.03 -461.31,4846.56 2425.55,5330.76 724.86,121.57 1869.61,733.56 2058.44,1493.17 267.58,1076.38 -1820.31,969.15 -2391.76,869.47l-224.74 -39.21z"/>
  <path class="fil0" d="M25851.99 18667.45c518.45,162.24 2385.01,673.43 2785.07,935.32 1398.22,915.29 599.54,1965.85 -1024.5,1715.97 -2032.48,-312.73 -4977.26,-1534 -6944.91,-2279.63 -805.51,-305.24 -2726.39,-1040.18 -1585.24,-2163.74 1055.19,-1038.93 3863.31,871.6 5052.63,1282.19 552.01,190.57 1151.03,332.69 1716.95,509.89z"/>
  <path class="fil0" d="M19011.8 22567.04c1438.67,889.92 2254.01,1656.91 3869.2,2407.07 1095.08,508.61 2136,949.2 3210.57,1508.67 1011.33,526.55 1732.2,734.09 2743.59,1147.39 582.06,237.86 2272.31,1199.14 1883.38,1998.71 -409.92,842.7 -2268.23,204.61 -2879.51,-48.99 -1375.02,-570.44 -2545.65,-1366.98 -3901.52,-1948.97 -1324.57,-568.56 -2890.85,-1424.62 -4198.27,-2097.64 -755.47,-388.89 -2492.51,-1171.43 -2906.54,-1865.69 -646.78,-1084.54 731.58,-1949.89 1988.9,-1212.16l190.2 111.61z"/>
  <path class="fil0" d="M23663 35257.08c-1089.14,-288.77 -5960.88,-4137.29 -6992.91,-5207.38 -298.85,-309.88 -1322.14,-1357.96 -1434.53,-1698.77 -249.07,-755.24 25.12,-1619.81 1037.66,-1267.14 1386.04,482.77 4289.7,3299.68 5641.61,4401.34 601.69,490.32 2345.53,1695.65 2645.08,2224.67 414.09,731.31 -274.52,1611.14 -896.91,1547.28z"/>
  <path class="fil0" d="M54075.96 20815.39c-1635.31,-1.73 -6326.22,-2112.26 -7685.05,-2963.35 -1414.5,-885.95 -2211.96,-1873.87 -3149.14,-3204.22 -905.38,-1285.19 -1616.95,-2576.81 -2586.09,-3873.6 -598.84,-801.32 -856.12,-1091.65 102.07,-133.81 814.13,813.83 1501.21,1547.64 2267.21,2393.84 1149.01,1269.3 3815.93,3188.8 5416.98,3838.13 1354.51,549.33 2906.56,1066.16 4317.12,1447.16 621.56,167.88 1775.67,236.43 2196.48,591.53 729.11,615.27 249.37,1803.8 -879.58,1904.32z"/>
  <path class="fil1 str0" d="M54075.96 20815.39c-1635.31,-1.73 -6326.22,-2112.26 -7685.05,-2963.35 -1414.5,-885.95 -2211.96,-1873.87 -3149.14,-3204.22 -905.38,-1285.19 -1616.95,-2576.81 -2586.09,-3873.6 -598.84,-801.32 -856.12,-1091.65 102.07,-133.81 814.13,813.83 1501.21,1547.64 2267.21,2393.84 1149.01,1269.3 3815.93,3188.8 5416.98,3838.13 1305.49,529.45 2794.47,1028.71 4163.42,1405.26 -34.75,-700.38 29.02,-1401.01 -99.62,-2131.91 -491.69,-2793.59 -1447.59,-4782.3 -3587.03,-6693.58 -4642.73,-4147.63 -13748.32,-3979.63 -19395.68,-2330.89 -6181.87,1804.8 -10073.1,3881.08 -13495.77,9561.79 -848.26,1407.89 -1700.77,2825.95 -2302.41,4358.87 -564.84,1439.18 -2078.76,5394.98 -2100.02,6828.82 -13.34,899.24 202.9,2751.5 247.95,3986.01 46.98,89.61 85.11,167.19 112.82,227.5 760.93,1655.93 1557.75,3523.19 2539.32,5057.28 681.01,1064.34 1062.71,1964.99 1852.1,3024.84 511.84,687.21 1065.86,1330.62 1638.6,1967.09 2824.77,3111.81 5424.87,5332.75 9167.3,7287.37 1288.91,673.18 2071.39,1191.89 3495.7,1668.84 2188.41,732.81 4513.11,836.1 6804.87,786.61 2140.17,-46.22 8098.26,-1628.33 11054.89,-2872.35 -649.87,-212.89 -1299.48,-432.02 -1938.1,-681.68 -848.32,-331.65 -1565.39,-602.23 -2428.53,-894.77 -1139.42,-386.17 -2256.01,-832.55 -3412.45,-1222.57 -110.85,-37.38 -1269.97,-392.23 -1260.91,-478.98 521.53,-198.94 4450.03,234.63 5349.03,392.47 2658.69,466.78 5283.53,1163.74 7793.77,2157.34 1998.82,791.17 3642.35,1490.25 5563.63,2478.87 1364.11,701.92 2745.83,1368.45 4116.14,2082.26 2331.39,1214.44 4800.58,2496.95 7065.32,3815.75 543.11,316.26 678.83,450.98 1285.77,710.21 816.75,348.85 1994.17,943.69 2891.14,782.74 2848.08,-511.06 3330.86,-2397.06 3503.6,-4954.84 89.91,-1331.21 -804.04,-4760.61 -1549.49,-5828.27 -1435.75,-2056.32 -4842.38,-3605.74 -7019.13,-4941.43 -2091.69,-1283.49 -4133.39,-2696.76 -6213.68,-3962.01 -587.4,-357.26 -2367.22,-1276.49 -3630.58,-2315.45 -1343.85,-236.67 -2172.17,-878.5 -4202.6,-1322.36 -1929.79,-421.86 -4819.9,-911.23 -6766.19,-920.69 -2299.27,-11.19 -3391.85,-141.3 -135.65,-643.05 288.78,-44.5 563.19,-80.91 853.12,-113.97 1663.81,-162.88 3703.27,-228.07 5385.81,-250.25 2378.63,-31.36 4050.21,120.81 6391.95,504.53 2785.57,456.45 5834.99,850.11 8642.64,1131.75 1292.9,129.69 2478.45,132.4 3800.9,301.37 2153.38,275.13 6353.95,1320.11 8203.33,90.25 1417.73,-942.79 1319.18,-3079.35 1124,-4575.24 -267.54,-2050.6 -1353.14,-3559.53 -2922.02,-4852.73 -3511.03,-2894.07 -11914.93,-3076.59 -16422.32,-3585.22 -2606.41,-294.11 -5495.49,-567.68 -8064.86,-1034.91 -132.21,-24.04 -252.94,-46.31 -363.98,-69.94 -33.4,5.09 -67.44,9.2 -102.08,12.28zm-23357.42 8813.49c-409.92,842.7 -2268.23,204.61 -2879.51,-48.99 -1375.02,-570.44 -2545.65,-1366.98 -3901.52,-1948.97 -1324.57,-568.56 -2890.85,-1424.62 -4198.27,-2097.64 -755.47,-388.89 -2492.51,-1171.43 -2906.54,-1865.69 -646.78,-1084.54 731.58,-1949.89 1988.9,-1212.16l190.2 111.61c1438.67,889.92 2254.01,1656.91 3869.2,2407.07 1095.08,508.61 2136,949.2 3210.57,1508.67 1011.33,526.55 1732.2,734.09 2743.59,1147.39 582.06,237.86 2272.31,1199.14 1883.38,1998.71zm-3105.98 -8310.14c-2032.48,-312.73 -4977.26,-1534 -6944.91,-2279.63 -805.51,-305.24 -2726.39,-1040.18 -1585.24,-2163.74 1055.19,-1038.93 3863.31,871.6 5052.63,1282.19 552.01,190.57 1151.03,332.69 1716.95,509.89 518.45,162.24 2385.01,673.43 2785.07,935.32 1398.22,915.29 599.54,1965.85 -1024.5,1715.97zm-3052.65 12391.06c414.09,731.31 -274.52,1611.14 -896.91,1547.28 -1089.14,-288.77 -5960.88,-4137.29 -6992.91,-5207.38 -298.85,-309.88 -1322.14,-1357.96 -1434.53,-1698.77 -249.07,-755.24 25.12,-1619.81 1037.66,-1267.14 1386.04,482.77 4289.7,3299.68 5641.61,4401.34 601.69,490.32 2345.53,1695.65 2645.08,2224.67z"/>
  <path class="fil1 str0" d="M9088.43 27829.53c222.44,-5120.86 3410.53,-10800.88 6485.97,-14782.99 1038.52,-1344.68 2678.02,-2762.08 4458.54,-3995.7 -1237.08,-537.51 -1794.52,-677.93 -3463.82,-573.76 -1382.16,86.25 -2042.58,846.55 -3006.88,1763.39 -2421.6,2302.42 -4194.2,5727.4 -5424.79,8801.51 -787.37,1966.93 -1303.83,3602.11 -1434.6,5721.98 -141.87,2300 -460.47,4839.86 2414.16,5328.84 -76.25,-875.2 -51.74,-1730.26 -28.58,-2263.27z"/>
 </g>
</svg>
